<svg xmlns="http://www.w3.org/2000/svg" xmlns:svg="http://www.w3.org/2000/svg" id="svg2" width="64" height="64" version="1.1" viewBox="0 0 64 64"><metadata id="metadata67"/><defs id="defs4"><radialGradient id="a" cx="-122.394" cy="442.723" r="29.58" gradientTransform="matrix(1,0,0,-1,134.4463,453.7334)" gradientUnits="userSpaceOnUse"><stop id="stop7" offset="0" stop-color="#fff"/><stop id="stop9" offset="1" stop-color="#007808"/></radialGradient></defs><g id="g11" transform="translate(1.3244995,2.7985005)"><polygon id="polygon13" points="5.402 13.541 .511 12.364 .511 5.078 5.402 6.763" style="fill:#0b4819"/><polygon id="polygon15" points="9.13 41.393 4.455 42.317 4.455 15.226 9.13 16.215" style="fill:#0b4819"/><polygon id="polygon17" points="60.662 55.981 34.012 53.917 47.597 40.738 47.597 34.243 28.175 53.465 4.919 51.667 42.222 11.55 36.083 11.882 9.13 41.393 9.13 16.215 11.683 13.201 5.402 13.541 5.402 6.763 27.321 5.066 15.306 18.846 15.306 24.71 33.126 4.617 61.351 2.432 19.834 45.706 25.361 45.997 55.516 15.154 55.516 44.305 52.166 47.454 60.662 47.913" style="fill:#105c80"/><polygon id="polygon19" points="9.13 16.215 4.455 15.226 7.159 11.971 11.683 13.201" style="fill:#0b4819"/><polygon id="polygon21" points="11.004 24.358 11.004 18.039 15.306 18.846 15.306 24.71" style="fill:#084010"/><polygon id="polygon23" points="21.714 47.346 15.82 47.006 19.834 45.706 25.361 45.997" style="fill:#0c541e"/><polygon id="polygon25" points="11.004 18.039 23.808 3.106 27.321 5.066 15.306 18.846" style="fill:#1a5c34"/><polygon id="polygon27" points="15.306 24.71 11.004 24.358 30.022 2.58 33.126 4.617" style="fill:#0b4819"/><polygon id="polygon29" points="4.455 42.317 33.195 10.432 36.083 11.882 9.13 41.393" style="fill:#1a5c34"/><polygon id="polygon31" points="4.919 51.667 0 53.344 39.798 10.042 42.222 11.55" style="fill:#0b4819"/><polygon id="polygon33" points="24.721 55.437 45.597 34.677 47.597 34.243 28.175 53.465" style="fill:#1a5c34"/><polygon id="polygon35" points="47.597 40.738 45.597 41.737 45.597 34.677 47.597 34.243" style="fill:#0b4819"/><polygon id="polygon37" points="34.012 53.917 30.973 55.965 45.597 41.737 47.597 40.738" style="fill:#0b4819"/><polygon id="polygon39" points="55.516 44.305 54.168 45.648 50.538 49.059 52.166 47.454" style="fill:#13802d"/><polygon id="polygon41" points="25.361 45.997 21.714 47.346 54.168 13.9 55.516 15.154" style="fill:#0b4819"/><polygon id="polygon43" points="54.168 45.648 54.168 13.9 55.516 15.154 55.516 44.305" style="fill:#084010"/><polygon id="polygon45" points="59.759 58.403 59.759 49.604 60.662 47.913 60.662 55.981" style="fill:#084010"/><polygon id="polygon47" points="15.82 47.006 60.507 0 61.351 2.432 19.834 45.706" style="fill:#1a5c34"/><polygon id="polygon49" points="59.759 58.403 30.973 55.965 45.597 41.737 45.597 34.677 24.721 55.437 0 53.344 39.798 10.042 33.195 10.432 4.455 42.317 4.455 15.226 7.159 11.971 .511 12.364 .511 5.078 23.808 3.106 11.004 18.039 11.004 24.358 30.022 2.58 60.507 0 15.82 47.006 21.714 47.346 54.168 13.9 54.168 45.648 50.538 49.059 59.759 49.604" style="fill:url(#a)"/></g></svg>