<?xml version="1.0"?><svg width="640" height="480" xmlns="http://www.w3.org/2000/svg">
 <title>Color Globe</title>
 <g>
  <title>Layer 1</title>
  <switch>
   <g>
    <path stroke-width="0" d="m531.657959,233.154999c0,120.123016 -97.376953,217.5 -217.502991,217.5c-120.123978,0 -217.499985,-97.376984 -217.499985,-217.5c0,-120.126999 97.376007,-217.507999 217.499985,-217.507999c120.126038,0 217.502991,97.381008 217.502991,217.507999z" fill="#7ce018" id="water" stroke="#000000" stroke-miterlimit="10"/>
    <path d="m532.098022,234.095001c0,120.398987 -97.601013,218 -218.002014,218c-120.39801,0 -218.000008,-97.601013 -218.000008,-218c0,-120.397003 97.601997,-218.000002 218.000008,-218.000002c120.401001,0 218.002014,97.601999 218.002014,218.000002zm-175.241028,-154.500999l1.643005,-0.098l0.877014,-0.484001l1.925995,0.625l0.446991,-1.029999l-2.109009,-1.335999l-1.003998,0.876999l-1.153992,0.477997l-1.464996,0.264l-1.813995,0.178001l0.332001,-1.421997l-1.145996,-0.919006l-1.826019,-0.612999l-1.104004,0.024002l-0.031006,0.979996l-0.446991,0.810005l1.084015,0.931999l-0.145996,1.348999l1.237976,0.110001l-0.367004,0.741997l1.354004,0.552002l-0.599976,0.717003l0.207001,1.396996l0.073975,0.050003l1.496002,0.232002l2.38501,0.091995l1.838013,-0.497002l0.024994,-1.047997l0.992004,0.944l1.679993,0.092003l1.796997,-0.398003l1.894989,-0.840004l-1.862976,-0.459999l-1.889008,-0.68l-2.01001,-0.698997l-1.453003,-0.183998l-0.862,-0.737zm80.365997,34.953995l1.373016,0.221001l0.108978,-0.949997l-0.991974,-0.625l-0.736023,0.362l0.246002,0.991997m-0.490997,-2.408997l1.588013,0.575996l0.292999,-0.771996l-0.403992,-1.152l-0.619019,0.073997l-0.679993,-1l-1.274994,-0.403999l0.55899,1.335999l0.537994,1.342003zm2.70401,1.586998l0.820007,-0.084999l-0.207001,-0.931999l-0.473022,-0.655998l-0.337982,0.625l0.197998,1.047997m-8.313019,-14.662994l1.324005,0.311996l-0.699005,-0.992996l-1.347992,-0.545006l-0.796997,-0.894997l0.582001,1.268997l0.937988,0.852005zm46.981018,62.544998l0.48999,-0.772003l0.76001,-0.153l-0.742004,-1.660995l-0.899994,0.403992l0.391998,2.182007m52.422974,80.572998l0.123047,-0.453003l-0.007996,-1.349991l-0.141052,0.209l0.026001,1.593994m-212.673981,209.774994l-0.233002,-0.007996l0.484009,-0.018005l-0.882996,-0.005981l-1.171021,0.036987l-0.691986,0.018005m-22.730011,-222.505005l1.680023,0.770996l1.263,0.766998l0.582977,-1.557999l-1.557007,0.209l-1.968994,-0.188995m24.213013,222.167999l-0.502991,0.100006l-0.012024,0.061005l-0.466003,0.09198l1.600006,-0.011993l0.723999,-0.061981l-0.453979,-0.035004l0.974976,-0.080017l-0.22699,-0.054993l-1.636993,-0.009003zm46.140991,-96.730988l2.121002,-0.361023l0.868988,-0.931976l-0.085999,-1.564026l-2.425995,0.670013l0.636993,0.178009l0.06601,1.278992l-1.181,0.730011zm-27.167999,-4.230011l1.244019,0.804993m-51.51001,-33.104004l0.385986,0.633026l-0.380005,0.421997l0.766022,0.214996l1.177002,-0.238007l-0.472015,-1.061005l-0.734985,-0.639008l-0.742004,0.667999m76.208008,16.416016l0.360992,1.048981l0.546997,-0.931976l0.889008,-0.145996l-0.667999,-0.730011l-0.221008,0.876984l-0.90799,-0.117981zm2.690979,4.285004l1.299011,0.925995m-47.01001,-17.279999l1.777008,-0.037018l0.588989,-1.440979l-0.595001,0.882996l-1.177002,-0.287018l-0.593994,0.882019m-14.276978,-19.817993l-0.423004,-0.736023l-1.02301,-0.042999l-1.612,0.545013l-0.998993,-0.770996m5.723999,2.863007l0.71698,-1.785004l-1.569,-1.496002m4.818024,8.024994l0.013,-1.643005l-2.048004,-1.360992m3.628998,3.020996l1.274994,1.791016m-0.006012,1.777985l1.649017,2.838013m2.218994,2.341003l1.299988,-1.318024l-1.765991,-0.894989m4.229004,1.378998l1.416016,0.281006m4.494995,2.152985l-2.244019,-0.71698l-1.292999,0.85199m-32.53299,-11.033997l1.80899,-0.28299m18.653015,-37.404022l1.311981,-0.630981l0.503021,-1.232025m4.192993,-18.923981l1.931,-0.373001l1.899994,-0.350006l1.899994,-1.011993l-0.968994,-0.613007l-1.415985,0.686005l-1.434998,0.343994l-1.69101,0.369003l-0.220001,0.949005m-13.462006,-59.712997l1.244995,-0.227005l-1.507996,1.446991l1.238007,0.073013l0.76001,-0.901001l-0.098022,1.569l0.656006,-2.139999l-0.466003,-0.956009l-1.826996,1.13501zm-5.442993,11.837997l1.263,0.748001l1.48999,0.716995l-0.447998,-1.582001l-0.924988,-0.410995l-1.380005,0.528zm10.156982,-74.118011l-0.471985,1.073013l0.201996,1.495987l1.440002,0.594009l1.152008,-0.45401l1.759979,0.423004l0.208008,-1.00499l-0.317993,-1.386002l-1.127991,-0.699005l-1.496002,-0.233002l-1.348022,0.190994m-7.110992,-21.632996l0.393005,1.018005l-0.031006,1.274994l-0.753998,0.975006l-0.294006,1.421997l0.570007,1.318001l2.06601,0.410995l1.195007,-0.968994l0.97998,-1.361l1.127991,-0.644005l0.27002,-1.170998l-1.07901,-0.544998l0.662018,-1.232002l-0.312012,-0.846001l-1.306,-0.484001l-0.337006,-1.029999l0.104004,-1.416l-0.871002,-0.195999l-0.638,1.300003l-1.169983,0.851997l-0.576019,1.322998zm-2.911987,-0.508995l0.906982,0.784996l-0.085999,-1.433998l-0.820984,0.649002m-1.580994,7.098999l1.127991,0.987l1.421997,0.753998l0.912994,-0.527l0.123016,-0.741997l-1.863007,-0.546005l-1.722992,0.074005m-6.320007,-2.207001l-0.681,1.496002l0.796997,0.686996l0.208008,-1.182999l0.471985,-0.961998l-0.79599,-0.038002m-4.039001,7.674995l1.016998,0.368004l0.042999,-1.232002l-1.059998,0.863998m-0.007019,-11.836998l1.183014,0.454002l0.337006,0.673996l0.968994,0.374001l0.803009,-0.287994l-0.71701,-1.104004l-1.544983,-0.514999l-1.030029,0.404999m-1.844971,0.233002l-0.116028,0.809998l0.588013,0.147003l0.674011,-0.926003l-1.145996,-0.030998m0.784973,1.134003l-0.552002,0.987l0.791016,0.778l1.605988,-0.135002l1.072998,-1.170998l-0.71698,-0.325005l-1.07901,0.012001l-1.122009,-0.145996zm-9.213989,3.162994l0.423004,0.723l0.975006,-0.501999l1.182983,-0.827995l-1.367004,0.061996l-1.213989,0.544998m-70.544006,-47.635998l-2.469986,1.422001m-10.48201,9.531998l-0.845993,0.766998l-0.123001,0.558006l0.906998,-0.895004l0.061996,-0.43m-10.537994,16.116005l0.453995,0.164993l0.630997,-0.845993l-1.084991,0.681zm-0.331009,1.783997l-0.042999,0.863998l0.693008,-0.894997l-0.650009,0.030998zm0.282013,2.892998l0.072998,0.699005l0.681,-0.068001m-0.348999,7.668999l1.145996,0.741997l0.447006,0.288002l0.759995,-0.367996l-0.178009,-0.687004l-2.174988,0.025002zm1.556992,1.562996l0.45401,0.815002l0.575989,0.619003l0.919006,-0.459999l0.054993,-1.189003l-1.01799,0.501999l-0.986008,-0.287003zm34.070007,-18.285995l-1.152008,0.306l0.123001,1.115997l-1.298996,1.453003l0.716995,0.949997l0.434998,-1.292999l0.950012,-1.047997l0.225998,-1.484001zm-12.339005,9.237999l-0.863998,1.109001l-0.330994,1.004997l0.544998,0.687004l0.820999,-0.331001l0.281998,-0.883003l-0.233002,-0.791l-0.220001,-0.795998zm-7.742996,22.073997l-1.28801,2.023003l1.048004,0.472l1.177002,-0.147003l0.901001,0.846001l0.919006,-0.992996l0.07399,-0.871002l1.189011,0.803001l0.600998,-1.060997l-1.391998,-0.393005l-1.312012,-0.318001l-1.916992,-0.361zm181.717987,-10.107994l-0.630981,-1.447006m-19.144012,-1.077995l1.218994,0.851997l0.344025,-0.630997l-1.563019,-0.221001zm138.746002,10.972l-0.550995,-0.853004l-0.325989,-0.459l-0.238007,-0.276001l0.108978,0.282005l0.312012,0.625l-0.403992,-0.446999l-0.527008,-0.619003l-0.335999,-0.250999l-0.110992,0.067001l-0.373016,-0.227005m-22.589996,-30.213997l0.496002,0.551003l-1.304993,-1.397003l-1.11499,-1.158997l-1.422028,-1.445999l-0.208984,-0.246002l-0.221008,-0.245003l-1.054993,-1.066002m-74.576996,-48.163998l-0.471008,-0.324999l-0.117004,-0.153l-1.43399,-0.355001l-0.277008,0.006001l-1.557007,-0.581999l-1.304993,-0.436001l-2.109009,-0.784l-1.704987,-0.711l-1.36499,-0.453999l-1.246002,-0.540001l-1.869019,-0.636999l-1.582001,-0.436001l1.178009,0.405001l1.188995,0.362l1.055023,0.410999l1.274994,0.435001l1.040985,0.423l1.613007,0.65l2.003998,0.76l1.018005,0.453999l1.770996,0.601l1.481995,0.527l1.411011,0.379m-179.834,8.836002l-0.46701,0.211998l-0.552002,0.441002l-1.378998,0.771999l-0.815002,0.594997l-0.630997,0.497002l1.06601,-0.687l0.422989,-0.134998l0.815002,-0.404003l0.166,0.159l0.820999,-0.655998l1.195999,-0.656002l1.539001,-0.796997l1.783997,-0.84l1.116013,-0.497002l1.416,-0.557999l1.416,-0.594002l0.496994,-0.386997l-1.343002,0.472l-0.496002,0.079998l-0.330994,0.036999l0.343002,-0.27l-0.693008,0.245003l-5.890991,2.971001l0,0zm4.472992,-2.522003m2.298996,-1.280998m1.244003,-0.491001m-10.470001,6.173l-0.250992,0.282001l-0.270004,0.306m-1.367004,0.908001l-0.569992,0.576l-0.723007,0.704998l-0.501999,0.644001l0.501999,-0.527l0.949997,-0.57l0.386002,-0.478001l-0.042999,-0.349998zm-2.751999,2.720997l-0.472,0.393002l-0.281998,0.637001l0.600998,-0.576l0.153,-0.454002zm-1.862991,2.416l-0.055008,0.392002m1.684998,2.635998l-0.606995,0.110001l-0.576004,0.797001l0.300003,0.208l0.576004,-0.098l-0.128006,-0.410999l0.434998,-0.606003zm40.054001,-19.468998l-1.029999,0.202999l-0.213989,0.545002l1.348999,-0.429001l-0.105011,-0.319zm-29.975998,27.418999l0.055008,1.220001l0.870987,-0.257999l0.110001,-0.656002l-1.035995,-0.306zm19.070007,-23.716l-1.208008,0.019001l-0.606995,-0.190002l-0.895004,-0.023998l-1.214005,0.325001l-0.906998,0.084999l-0.735992,-0.061001l-1.036011,0.116001l-0.876999,0.049l-0.569992,-0.030998l-0.227005,-0.129002l-0.772003,0.221001l-1.200989,0.281998l-0.368011,-0.098l-0.980988,0.146999l-0.178009,-0.165997l-1.612,0.483997l0.300003,0.123001l-0.264008,0.293999l-1.022995,0.502003l-1.427994,0.594997l0.858002,-0.166l0.987,-0.434998l0.728989,-0.184002l1.103012,-0.434998l0.914001,-0.264l0.69899,-0.019001l0.238998,0.189999l0.404007,0.042999l-0.201996,0.325001l-0.975006,0.545002l-1.576004,0.687l1.07901,-0.251003l1.391998,-0.348999l1.391998,-0.325001l1.237991,-0.213997l1.24501,-0.196003l1.384995,-0.264l0.766998,0.104l0.938004,0.031002l1.244995,-0.129002l1.091003,-0.019001l1.061005,-0.189999l0.595001,-0.417l-1.23201,0.178001l-0.018997,-0.276001l0.447006,-0.513zm11.199997,38.606998l-0.987,-1.029999l-1.061005,0.183998l0.201996,0.956001m0,-0.000999l-0.612991,0.729004l0.453995,1.416l1.490005,-0.803001l0.514999,-1.453003l-1.846008,0.111zm32.574997,-24.702999l-1.421997,0.128998l-1.850983,0.809002l0.747986,0.410999l1.998993,-0.042999l0.864014,-0.674l-0.338013,-0.632zm1.938019,0.846001l-0.834015,-0.386002l-0.39798,0.397999l0.539978,0.343002l0.692017,-0.355m-1.889008,4.529999l-1.770996,-0.287998l-2.274017,0.563999l-0.888977,0.625l0.765991,0.723999l1.612,-0.667999l1.575012,-0.785l0.980988,-0.172001zm101.807983,3.341l-1.472992,-0.931999l-1.218994,-0.098l-0.079987,1.065998l1.47699,0.374001l1.294983,-0.41m-37.515991,5.498001l-0.768005,-0.601002l-1.483002,-0.085999l-0.777985,-0.84l-0.748016,-0.049l-1.145996,0.687l-0.446991,-0.57l-1.06601,-0.123001l-0.71698,0.863998l1.378998,0.074001l0.85199,-0.244999l1.526001,0.582001l1.145996,-0.380001l0.753998,0.668003l1.496002,0.018997m-1.243988,1.459l-0.338013,-0.906998l-1.372986,-0.466003l-0.208008,0.533005l-1.367004,0.116997l-1.018005,0.698997l1.667999,0.116005l1.102997,-0.527l0.644012,0.532997l0.889008,-0.098m2.035004,-0.300003l-0.828003,-0.606995l-0.231995,0.618996l1.059998,-0.012001m2.132996,3.542999l0.054993,-0.57l-0.44101,-0.508995l0.796997,-0.233002l-0.122986,-0.674004l-0.803009,-0.532997l-0.856995,0.300003l-1.25,-0.123001l-0.036987,0.417l1.524994,0.600998l-0.631012,0.202003l-0.153992,0.508995l1.919006,0.612999m63.290985,55.918007l0.589996,-0.417l-0.77298,-1.478004l-0.38501,1.220001l0.567993,0.675003m10.299011,-3.261002l-1.329987,-0.833l0.440979,0.760002m2.347992,4.381996l1.049011,-0.153m1.02301,8.962006l-0.631012,-2.065002l-1.324005,-1.453003l0.387024,1.832993l1.017975,0.778l0.550018,0.907013m5.480988,-42.046005l0.656006,-0.213997l-0.77301,-0.926003l-0.776978,-0.918999l-0.166016,1.035995l1.059998,1.023003m-1.901001,-1.311996l0.496002,0.054993l-0.507996,-0.924995l-0.675995,0.422997l0.687988,0.447006m59.731018,34.898994l0.60199,-0.417l0.985992,0.993004l0.507996,0.127998l-0.151978,-0.883003l0.649994,0.110001l-0.877014,-1.373001l0.570007,-0.232994l-1.200989,-0.588005l-0.895996,-0.472l0,-0.889l-1.012024,-0.232994l-0.378998,0.575996l-0.214996,0.728996l0.570007,1.379005l0.846008,1.172997zm4.85498,-0.134995l-0.23999,-1.091003l-0.054993,-0.906998l0.214996,-0.368004l-0.436005,-1.519997l-0.479004,-1.526001l-0.64801,-0.705002l0.662018,1.403999l-0.541016,-0.477997l0.393005,1.311996l-0.028992,0.675003l0.453003,1.263l-0.332001,-0.160004l0.10498,1.122002l0.932007,0.979004zm-5.712982,-18.470001l0.526978,0.221001l-0.368988,-1.073006l-0.734009,-1.255997l-0.625,-0.736l-0.411987,-0.858002l-0.355011,-0.091995l-1.446991,-1.894005l0.925995,1.471001l0.687988,1.195l0.576019,1.012001l0.593994,0.815002l0.631012,1.195zm1.158997,7.600998l0.582001,0.361l-0.662018,-1.066002l-0.931976,-1.029999l1.011993,1.735001m-5.658997,-2.199997l-0.594025,-0.441002l0.330017,0.649002m1.691986,1.280998l0.582001,0.447998m-44.828003,105.784996l1.318024,-0.213989m5.744995,-1.748001l1.286987,-1.06601m31.453003,14.337006l0.942993,0.502991l0.178009,-1.022995l-0.355011,-1.569l-0.263977,1.275009l-0.502014,0.813995zm2.304016,-1.084l0.606995,0.490005l0.453003,-0.944l-0.447021,-0.669006l-0.655975,0.343994l0.042999,0.779007zm2.483002,-3.432999l0.415985,-1.378998l-0.924011,-1.734009l0.378998,-0.951004l-0.274994,-0.912994l-0.251984,0.783997l0.14798,1.080002l0.115021,2.365005l0.393005,0.748001m-369.976013,-39.373001l0.250999,-0.061996m0.158997,0.570999l-0.122993,0.832993l0.079994,0.595001l0.484001,-0.630997l-0.091995,-0.693008l-0.349007,-0.103989m-0.072998,5.001999l-0.318001,1.134003l0.195999,1.115997l0.448006,-1.875l-0.326004,-0.375m-0.140999,3.819l0.208,1.047989m-0.182999,0.779007l-0.117004,0.975006l-0.262993,0.655991l0.189995,0.44101l0.270004,0.250992l0.158997,-1.384995l-0.195999,-0.28801l-0.042999,-0.649994m364.385994,-90.375l-0.363007,-1.165001l-0.440979,-1.335999l-0.39801,-1.159004l-0.545013,-0.250999l-0.569977,-1.133995l-0.330017,0.570999l-0.054993,0.066002l0.446991,1.306l0.667999,1.617996l0.820007,1.091003l1.117004,1.574997l-0.350006,-1.181999zm-2.710999,32.966995l-0.286987,-1.354996l-0.785004,-1.201004l1.286987,1.07901l0.865021,0.552002l0.819977,1.084991l1.209015,1.416l-1.203003,0.074005l-0.863007,-0.544998l-1.042999,-1.105011m3.813995,4.506012l0.839996,0.759995l1.090027,0.416992l1.214996,1.134003l1.169983,1.324005l0.951019,-0.098007l-0.705017,-1.459l0.121002,-0.871002l-0.937988,-1.274994l-0.998016,-1.097l-1.031006,-0.931992l-1.034973,-0.742004l-1.15802,-0.080002l0.667999,1.740997l0.115021,0.871002l-0.305023,0.307007m8.244019,-1.956009l1.017975,0.195999l0.04303,-0.69899l0.813995,-0.71701l0.23999,-0.875992l0.765991,0.005997l0.188995,-1.275009l-0.759979,-1.053986l-0.753998,-0.362015l-1.164001,-1.403992l-0.994019,-1.606003l0.412018,1.778l0.171997,1.759003l-0.031006,1.231995l-0.436005,0.521011l-0.048981,1.060989l0.533997,1.440002m-233.724014,237.028992l-0.287994,1.281006l1.207993,0.920013l-1.201996,0.410004l1.208008,0.673981l1.237991,-0.618988l-0.918991,-1.304993l-1.24501,-1.361023zm49.659012,-49.566986l1.188995,0.049011l1.177002,1.194977l1.520996,0.312012l1.201996,-0.546997l1.226013,0.337982l1.201996,0.02002l-0.606018,-1.166016l-1.477997,-0.575989l-1.802002,-0.350006l-1.802002,-0.329987l-1.526001,0.520996l-0.302979,0.533997zm-22.546021,-14.492004l2.299011,0.269989l0.667999,-1.11499l2.02301,0.214996l1.238007,-0.753998l1.201996,-0.768005l1.729004,0.484009l2.322998,0.479004l-1.778015,0.446991l1.115997,0.975006l1.740997,0.424011l2.636017,0.188995l1.127991,0.957001l1.471008,0.367004l1.746979,0.692993l1.771027,-0.19101l0.587982,0.584015l0.251007,1.47699l1.747009,1.221008l2.672974,0.085999l0.588013,1.194977l-1.226013,0.826019l-0.906982,0.833984l2.397003,0.074005l1.79599,-0.274994l1.790009,0.028992l1.790009,0.326019l1.789978,0.005981l1.183014,-0.589996l1.790009,-0.286987l-0.294006,-0.588013l-0.889008,0.011993l-1.18399,-1.140991l-1.78302,-0.312012l-1.213989,0.301025l0.330994,-1.453003l-1.496002,-0.295013l-1.770996,-0.34201l-1.759003,-1.188995l-1.477997,-0.632996l-1.43399,-0.923981l-1.740997,-0.945007l-1.747009,-0.636993l-1.759003,-0.09201l-1.152008,-1.257996l-1.415985,-0.64801l-1.446991,-0.699005l-1.740997,-0.122986l-1.716003,-0.735992l-1.740997,-0.146027l-1.765015,0.44101l-1.759003,0.117004l-1.752991,0.140991l-1.796021,0.686005l-1.201996,0.748016l-0.079987,1.151978l-1.778015,0.38501l0,0zm36.400024,14.191986l2.43399,1.098022l0.569,-0.589996l1.813995,-0.035004l1.520996,0.269989l1.515015,-0.355011l1.813995,0.244019l1.519989,1.630981l1.195007,-1.47699l-0.018005,-0.854004l1.789001,-0.667999l0.024994,0.846008l1.796021,-0.373016l2.065002,-0.710999l1.802979,-0.128998l1.226013,1.061005l1.17099,-1.527008l-1.569,-1.304993l-2.990997,-0.337982l1.434998,-0.955017l-2.071991,0.141022l-0.649017,-1.129028l-2.077972,-0.151978l-1.797028,-0.184021l-2.395996,0.109009l-1.17099,0.60199l-2.089996,-0.796997l-2.11499,0.055023l-1.171021,0.888977l1.790009,-0.036987l0.912994,1.140991l0.019012,1.13501l1.539001,1.390991l-1.507996,0.89502l-1.809021,0.042999l-1.520996,-0.545013l-1.809998,-0.256012l-1.187988,0.865997zm26.474976,-0.245972l1.52002,0.122986l1.48999,-0.429993l1.471008,-0.15802l0.846008,-0.950989l-1.225006,-0.71701l-2.072021,0.22702l-2.108978,0.208984l0.078979,1.697021zm-39.483002,-23.907013l0.245026,1.231995l-0.889008,0.856995l1.697998,1.527008l0.833984,1.80899l0.613007,-1.153992l-0.845978,-1.207001l0.029999,-1.207001l-0.827026,-1.820007l-0.858002,-0.036987zm37.056,-93.893005l1.759003,0.71701l0.748016,0.85199l1.507996,0.393005l1.686005,0.085999l1.410004,-0.233002l-1.02301,-1.140991l-1.307007,-0.411011l-1.501984,-0.422989l-1.660004,-0.062012l-1.619019,0.222zm2.083008,11.848999l0.980011,0.827011l1.656006,0.723999l2.292999,0.618988l-0.197021,-1.244995l1.128998,-1.139999l-1.870972,0.600998l-1.488007,0.227005l-1.606995,-0.386002l-0.38501,-1.257004l-0.51001,1.029999m-43.300995,-57.044998l1.514008,-0.134995l1.770996,-1.373001l0.036987,-0.287994l-1.145996,-0.104004l-1.378998,0.483994l-0.796997,1.416zm6.386993,-0.037003l-0.337006,2.096008l0.687012,0.957001l0.871002,-1.490005l0.244995,-1.477997l-1.466003,-0.085007zm48.489014,50.339005l0.71698,1.490005l1.71701,-1.018005l2.139008,-0.110992l1.833984,-0.417007l1.826019,-0.434998l1.679993,-0.098007l0.307007,1.219009l-0.994019,1.22699l1.53302,-0.023987l0.742004,-2.158005l0.905975,-0.595001l1.292999,0.005997l-0.103973,2.005005l0.962982,-1.251007l0.410004,1.508011l1.436005,-0.404999l-0.13501,-1.942001l-0.122986,-1.943008l-1.098022,0.667999l0.068024,-1.998993l-0.693024,0.514999l-0.375,1.765991l-0.770996,-0.459991l0.06601,-1.324005l1.238007,-2.330002l-1.671997,0.791l-0.925995,-1.054993l0.722992,-1.85701l-1.330017,-0.299988l-1.556976,0.410995l-1.447021,0.729004l-1.703003,-0.91301l0.734009,-1.158997l-1.496002,-0.257004l-1.438995,1.630005l0.307007,-2.022995l0.453003,-1.397003l0.472992,-2.072006l0.06601,-1.973999l-1.115021,0.276001l-1.269989,1.281006l-0.446991,1.384995l-0.188995,1.680008l-0.53302,2.065994l-0.085999,2.279999l-0.77301,2.108002l-0.452972,1.729004l0.858978,0.127991l-0.950989,1.484009l-0.809998,1.134995zm-59.928009,-56.451004l2.218994,0.319l-0.18399,1.802002l1.605988,-0.085999l1.343018,-1.373001l1.152008,-1.072998l1.237976,0.128998l1.275024,1.02301l1.268982,1.299988l1.686005,-1.366989l-1.575012,-1.018005l-0.661987,-1.569l-1.072998,-1.287003l-1.697998,-1.391998l-1.34201,-1.630005l-0.208008,-1.826996l-1.789978,1.244995l-0.667999,1.422012l-0.662018,2.011002l0.006012,2.151993l-1.932007,1.218994m17.158997,-12.763l0.552002,1.771011l1.716003,-0.251007l0.987,-0.876999l0.244995,-1.477005l-0.710999,-1.158997l-1.648987,-0.018997l-1.140015,2.011993m-14.436981,-15.722992l0.784973,1.612l0.478027,1.832993l0.80899,1.563004l1.747009,1.44101l1.815002,0.22699l2.494995,0.815002l1.329987,-0.166l1.821014,1.582001l1.140991,-0.526993l1.312012,-1.667007l0.681,1.472l2.162994,1.777008l-0.502014,2.292999l1.618011,-1.141006l1.048004,1.740997l1.783997,1.122009l0.539001,1.740997l0.563995,1.464996l-0.950012,1.188995l-1.084991,1.508011l-1.251007,1.188995l1.440002,1.759995l-1.561981,1.23201l-2.115021,-0.006012l-2.359985,-0.661987l-0.317993,1.169998l-0.944,0.287994l-0.619019,1.447006l0.864014,1.544998l2.483002,0.067001l1.25,-0.883011l1.777985,0.294006l1.661011,0.882996l1.550995,0.576004l1.428009,0.852005l0.079987,1.519989l1.507996,1.128006l1.343018,0.546005l1.78299,0.472l0.669006,0.857986l1.709991,0.778l1.686005,0.466003l1.80899,0.110001l-0.208984,-1.483002l-1.47702,-1.090988l-1.612,-1.343002l-1.415985,-1.109009l-0.858002,-1.421997l2.059998,0.736008l1.70401,1.035995l2.010986,0.987l2.132996,-0.264008l0.013,-2.416l-1.501984,-1.335999l-0.429016,-1.765991l-1.263,-1.042007l-1.937988,-1.306l-0.05899,-0.093002l-1.106018,-1.592987l0.074005,-2.403l2.800995,1.48999l1.122009,1.986008l2.053986,0.925995l0.171997,-1.839005l1.680023,-0.863998l0.061005,-1.496002l0.508972,-2.218994l-1.353973,-0.962006l-1.69101,-0.925995l-1.778015,-0.962006l-1.556976,-1.256989l-2.219025,0.250992l-2.053986,-1.287003l-0.214996,-1.735001l1.709991,-0.753998l-1.747009,-1.263l0.355011,-1.496002l-1.279999,-1.617996l-1.907013,-0.998993l-2.010986,-1.91301l-1.459015,-0.796997l-1.893982,-0.227005l-0.029999,-1.697998l-0.399017,-1.110001l-1.623993,0.264008l-1.213989,-0.693008l-1.11499,-0.367996l-1.397003,1.055008l-1.337006,-0.074005l-1.263,0.932007l0.583008,-1.655014l-0.570007,-1.599991l0.540009,-1.477997l-0.429016,-0.871002l-1.354004,0.147003l-1.679993,0.931992l-1.53299,1.238007l-0.423004,1.649002l-0.386017,1.391998l0.128998,1.427994l-0.944,-1.263l0.203003,-1.416l0.201996,-1.378998l0.76001,-1.324005l0.80899,-0.845993l1.753021,-0.699005l-1.464996,-0.275993l-1.649017,-0.233002l-1.238007,0.655998l-1.496002,1.151993l-0.919983,1.281006l-0.85199,1.292999l-0.552002,1.923004zm-3.08902,-12.046005l0.925018,0.877007l1.306,0.851997l0.625,-1.68l-0.257019,-1.268997l-1.041992,-0.270004l-1.557007,1.489998m3.08902,-6.166l-0.552002,1.085007l0.428986,1.556999l1.661011,0.134995l0.649994,0.993004l-0.140991,1.361l-0.76001,1.263l-0.380005,1.625l1.716003,1.103996l1.752991,0.514999l1.625,0.417l1.759003,0.233002l1.274994,-0.957001l1.373016,0.969002l1.833008,-0.422997l0.71698,-1.312004l0.122009,-1.280998l-1.557007,-0.931999l-1.397003,-0.127998l-1.562988,-0.503006l-1.942993,0.533005l-1.740997,-0.68l-1.02301,-1.122002l0.618988,-0.520996l-0.747986,-0.815002l-0.140991,-0.968002l-1.471008,-0.319l-0.772003,-1.103996l-1.342987,-0.725006zm9.071991,-12.560997l-0.221008,1.544998l0.729004,1.177002l1.661987,0.246002l1.292999,-0.258003l1.710022,0.153l1.838989,-0.276001l-1.230988,0.840004l-1.876007,0.362l-0.858002,0.600998l-1.25,-0.686996l-0.944,1.612l0.876007,0.655998l-0.300018,1.398003l0.178009,1.231995l-1.109985,0.245003l-1.625,1.637001l1.360992,1.011002l-1.968018,0l-0.342987,1.287994l0.679993,0.667999l-1.061005,0.227005l-1.372986,0.748001l-0.380005,1.298996l1.446014,0.544998l2.225983,0.583l1.140015,-0.422997l1.134003,0.417l1.047974,-0.466003l0.380005,1.109001l1.882019,-0.698997l1.188995,-1.280998l-1.183014,-1.410004l1.378998,-1.004997l-0.201996,-1.097l1.734009,-0.215004l0.656006,-1.593994l0,-1.582001l0.691986,-1.575005l1.686005,-0.741997l0.858002,-1.544998l0.606995,-1.226006l1.084991,-1.25l1.104004,-1.593994l-0.135986,-0.760002l0.717987,-0.969002l0.466003,-0.858002l-0.195984,-0.648994l-0.962006,-0.245003l-0.895996,-0.638l-1.360016,-0.208l-1.256989,-0.386002l-1.263,0.062004l-0.914001,0.318001l-1.071991,-0.221001l-1.857025,0.306999l-1.017975,0.944l-1.343018,0.618996l-0.987,0.484001l-0.158997,0.625l-1.220001,-0.195999l-1.192993,1.097zm-12.645996,3.758003l-0.13501,0.661995l0.791016,0.931999l-1.091003,0.631004l0.122986,0.876999l1.145996,0.889l0.932007,0.331001l-0.074005,1.434998l1.115997,-0.226997l1.287018,0.213997l1.029999,0.183998l0.699005,-0.827995l0.029999,-0.828003l-1.011017,-1.471001l-0.729004,1.208l-0.882996,1.097l-0.643982,-0.374001l0.256989,-1.121994l0.631012,-1.171005l-0.411011,-1.244995l-0.998993,-0.362l-0.460022,-0.809006l-0.858002,-0.348999l-0.746979,0.326004l0,0zm-4.063995,7.796997l-0.166016,1.434998l-0.411011,1.073006l0.110016,1.531998l1.625,-0.166l-0.110016,1.968002l2.011017,0.649994l1.177002,-1.439995l0.459991,-1.331001l0.552002,-1.157997l-0.790985,-1.257004l-1.335999,-0.552002l-0.993011,0.644005l-0.772003,1.225998l-0.171997,-1.397003l-0.325012,-1.060997l-0.858978,-0.166zm-13.927002,-6.821999l-0.391998,1.434998l0.863983,0.435005l0.619019,0.857994l1.593994,-0.349998l1.225983,-0.57l0.417023,1.122002l1.917999,-0.527l0.618988,-1.091003l1.299988,-0.221001l-0.171997,-1.121994l-1.263,0.342995l-0.931976,-0.748001l-1.171021,-0.048996l-1.415985,0.140999l-1.674011,0.423004l-1.536987,-0.079002l0,0zm1.531982,5.528999l0.729004,0.974998l0.416992,0.914001l1.416016,-0.312004l0,1.336006l-1.429016,-0.012001l-0.122986,0.827995l0.821991,0.785004l1.122009,0.158997l1.397003,-0.336998l1.373993,-0.091995l1.612,0.943993l1.201996,0.227005l0.981018,-1.225998l1.02298,-1.048004l-0.765991,-0.889l-0.588013,-1.428001l0.539001,-1.519997l-1.059998,0.319l-1.256989,0.637001l0.362,0.759995l-0.76001,0.656006l-0.18399,1.182999l-1.397003,-0.974998l0.337006,-1.195l0.013,-0.981003l-0.540009,-1.299004l-0.85199,-0.704994l-1.281006,0.606995l-1.654999,0.864006l-1.45401,0.824997l0,0zm-13.914978,3.917l-0.037018,1.925003l-0.987,1.991997l1.765991,0.203003l1.220001,0.489998l2.054016,-0.778l2.02301,-1.514l2.016998,-0.123001l1.777985,-0.055l1.888,-0.098l-0.423004,-1.642998l0.251007,-1.612l-1.378998,-0.926003l-0.613007,-1.539001l-1.722992,-0.171997l-1.666992,-0.544998l-1.140015,1.795998l-1.605988,1.139999l-1.821014,0.784996l-1.600983,0.674004l0,0zm165.215973,292.125008l0.883026,-1.09201l1.85199,-1.574005l0.846008,-1.108978l1.837982,-1.625l0.627014,-1.041016l0.35498,-0.925995l0.582001,-1.054993l1.195007,-1.115021l0.335999,-0.962982l0.649994,-1.281006l0.834015,-1.38501l0.06601,-0.882996l0.294983,-1.011993l0.049011,-0.902008l0.515991,-1.15799l0.593994,-1.53302l1.662018,-1.481995l1.458984,-1.561981l1.531006,-1.932007l0.975006,-1.502014l1.203003,-1.64798l0.845978,-0.968994l1.611023,-1.570007l0.90799,-1.373016l1.390991,-1.671997l0.889008,-1.375l0.914001,-1.593994l0.899994,-1.610992l0.453003,-1.734009l-0.071991,-1.071991l-0.332001,-1.117004l-0.335999,-1.15799l-0.596008,-1.012024l-1.665985,0.559021l-1.496002,1.065979l-1.471008,0.607025l-0.925995,-0.28302l-1.459015,0.186005l-0.975006,-0.28299l-0.950989,-0.330017l-1.48999,-0.048981l-1.494019,-0.057007l-1.520996,-0.104004l-1.561981,0.765991l-1.588013,1.195007l-1.582001,0.747986l-1.562012,0.098022l-1.599976,0.725006l-1.588013,0.071991l-1.613007,0.503998l-1.64798,1.34201l-1.912018,1.207001l0.570007,-1.508026l-0.791016,-0.728973l-0.501984,-0.883026l-1.661987,1.115021l-0.545013,-0.667999l-2.22699,0.458984l-1.666016,0.19101l-1.937988,-0.140991l-1.960999,0.722992l-1.160004,0.839996l-1.152008,2.378998l-0.846008,-0.122986l0.596008,-1.312012l0.562012,-1.980011l-1.979004,0.264008l-1.71701,0.804993l-1.722992,0.361023l-1.459015,1.138977l-0.011993,1.545013l-0.575989,1.949005l-0.846008,-1.488007l-2.061005,1.299011l0.332001,-1.631012l0.562012,-1.514008l1.458984,-1.378998l1.141022,-1.256012l1.440979,-1.839996l0.25,-2.15799l-2.009979,0.436005l-0.631012,-1.674011l-1.195007,-1.519989l-0.057007,-1.64801l-1.788971,-0.890991l-1.184021,-0.367004l-1.789001,-0.429993l-1.515991,-0.557007l-1.789001,-0.221008l-1.501984,-0.054993l-1.184021,0.054993l-1.789001,0.006012l-1.790985,0.195007l-1.78302,0.454987l-1.776978,0.705017l-1.796997,0.43399l-2.096008,0.221008l-0.86499,-0.714996l-0.080017,-0.057007l-1.261993,-0.46701l-1.85199,-0.588013l-1.471008,0.553009l0.231995,-1.311981l-0.674011,-1.104004l-1.862976,-0.656006l-1.863007,-0.643005l-2.15802,-0.606995l-2.71698,0.985992l0.540985,-1.886993l-0.692993,-1.429993l-2.144989,-0.15802l-1.559021,-0.23999l-1.194977,0.44101l-1.305023,-1.109009l-1.257996,-0.846008l3.01001,-1.005981l-2.121002,0.332001l-2.450989,0.366974l-2.133026,0.301025l-1.78299,1.561981l-1.828003,0.768005l-2.149994,-0.024994l-1.570007,-0.317993l-0.656006,-0.71701l-1.519989,0.164001l-1.550995,0.411987l-2.152008,0.201019l-2.187988,0.446991l-0.619019,-0.985992l-0.373993,-1.299011l-1.537994,-0.667999l-1.864014,-0.117004l-1.561981,0.104004l-0.681,-2.096008l-1.502014,0.89502l0.619019,1.298981l-1.507996,0.877014l-1.558014,0.618988l-1.562012,0.582001l0.029999,1.85202l1.294006,1.753998l0.024017,1.794983l-2.207001,0.627014l-0.312012,-1.287018l-0.950012,-0.987976l0.920013,-1.594025l0.919006,-1.071991l-0.649017,-1.298981l-0.957001,-1.545013l1.857025,-0.618988l0.906982,-1.350006l-0.605988,-0.770996l-1.269012,-0.234009l-1.213989,0.847992l-0.920013,1.121002l-1.557007,0.55899l-1.22699,0.826019l-1.856995,0.833984l-2.506989,-0.220978l-0.932007,1.054993l-1.532013,-0.246002l-1.569,0.53299l-0.937988,1.037018l-0.307007,1.561981l0,1.557007l-1.580994,0.234009l-0.944,1.281006l-1.888,1.255981l-0.011993,2.287018l-1.576019,-1.559021l-1.231995,-1.078003l-1.231995,-1.054993l-1.569,-1.078003l-1.575989,-0.350006l-1.526001,-0.569977l-1.875,-0.098022l-0.950012,0.969025l-1.881989,0.403992l-1.882019,0.367004l-2.218994,0.350006l-1.220001,-0.863007l-1.569,-0.13501l-0.563995,-1.355011l-1.545013,-0.919983l-1.53299,-1.18399l-0.881989,-1.402008l-0.882996,-1.386993l-0.546021,-1.391022l0.638,-1.263977l0.062012,-1.594025l0.691986,-1.794983l0.067017,-1.613007l0.074005,-1.881012l0.974976,-1.269989l0.098022,-2.464996l-0.595001,-0.625l-1.464996,-0.686005l-0.065002,-0.05899l-1.388,-1.498016l-1.508026,-0.449005l-1.17099,-0.440979l-1.820007,0.067993l-1.783997,-0.539001l-1.832977,0.307007l-1.809021,0l-2.046997,-0.846008l-2.164001,0.484009l-1.403992,-1.074005l-1.453003,-0.820007l1.856995,-0.785004l1.061005,-2.083984l0.127991,-1.674011l0.503021,-2.751984l0.772003,1.524994l1.017975,-1.545013l0.472015,-1.917999l0.416992,-1.660004l0.416992,-1.667999l0.735016,-1.630981l1.582001,-1.22702l0.117004,-1.421997l-0.821014,-0.71698l-1.729004,-0.27002l-1.427979,-0.509979l-1.747009,-0.012024l-1.783997,0.295013l-1.747009,-0.036987l-1.740997,-0.042999l-1.195007,0.366974l-0.514984,1.938019l-0.423004,1.384979l-0.705017,1.012024l-0.140991,1.427979l-1.200989,0.350006l-1.23201,0.613007l0.195999,0.902008l-2.065994,0.11499l0.054993,-0.539001l-2.003998,-0.747986l-2.084,0.392975l-2.028992,-0.159973l-2.078003,0.048981l-1.128006,-0.281006l-0.992996,-1.390991l-1.625,-1.006012l-1.617996,-0.985992l-0.956009,-1.729004l-0.643997,-1.649994l-0.593994,-1.923981l-0.932007,-1.430023l-0.655991,-1.358978l-0.343002,-1.594025l0.735992,-0.968994l-1.453003,-1.643005l-0.276001,-1.876984l0.785004,-1.25l0.28801,-1.722992l0.293991,-1.734009l0.300003,-1.734009l0.852005,-1.582001l0.814987,-1.600006l1.061005,-1.237976l0.012009,-1.551025l0.319,-1.759979l-0.208008,-1.925995l0.619003,-1.686005l1.25,-0.877014l1.778,-0.729004l1.783997,-0.785004l1.617996,0.13501l1.189011,-0.625l1.220001,-0.625l-0.509003,-1.703003l1.127991,-0.313995l-0.256989,1.472992l1.715988,-0.509979l1.361008,0.036987l1.869995,0.140991l1.478012,0.938019l1.531982,0.675995l1.464996,-0.613007l1.410004,1.524994l0.080017,1.244019l1.556976,0.649994l1.900024,0.042999l1.17099,-0.373016l1.02301,0.484009l0.692993,1.053009l0.625,-0.519989l-1.458008,-1.484009l0.080017,-0.619019l0.875977,-0.435974l0.374023,-0.863007l-1.343018,-0.246002l-1.373993,0.110992l-1.041992,-0.501984l0.031006,-0.062012l1.004974,-1.373016l1.464996,1.207001l1.710022,-0.618988l1.335999,0.231995l1.562988,0.563995l0.907013,-0.776978l0.39798,1.329987l1.606018,0.25l1.643005,-0.085999l1.636993,-0.061005l0.975006,1.06601l1.556976,0.839996l0.411011,1.570007l1.654999,-0.085999l1.416016,-0.761993l1.648987,-0.104004l1.274994,1.35498l1.226013,2.268005l0.796997,0.403992l0.403992,1.877014l-0.360992,1.471008l-0.085999,1.231995l1.127991,-0.221008l-0.649994,1.757996l0.190002,1.257996l1.036011,1.292999l0.759979,1.588013l0.748016,1.868988l1.372986,1.301025l0.509003,1.544983l1.421997,-0.214996l0.882996,-0.515991l0.932007,-1.740021l0.391998,-2.103973l0.09201,-2.096008l-0.753998,-2.15802l-0.736023,-2.200989l0.055023,-1.200989l-1.036011,-1.906006l-0.436005,-1.868988l-0.71698,-1.89502l-0.190002,-1.863007l-0.147003,-1.862976l0.919006,-1.785004l0.906982,-1.78302l1.692017,-1.446991l1.648987,-0.820007l1.648987,-1.134979l1.104004,-1.176025l0.839996,-1.22699l1.612,-0.86499l1.336029,-0.244019l1.35498,-1.188995l1.317993,-1.231995l1.851013,-0.257996l0.796997,-0.925995l-1.557007,-0.029022l1.575012,-1.208984l1.02301,0.014008l0.539978,-0.934021l0.006012,-1.27298l-1.292999,-0.02002l-1.545013,-0.028992l1.306,-0.575989l1.018005,-0.326019l0.765991,0.350006l0.766998,1.244019l-0.766998,-1.244019l-0.22699,-1.587982l-0.509003,-1.25l-1.263,-1.299011l0.019012,-1.246002l0.294006,-1.579987l-1.747009,-1.287018l1.488983,0.335999l-0.213989,-1.255981l-0.208984,-1.89502l0.496979,-1.243988l1.244019,-0.625l-0.521027,1.244003l-0.01297,1.287003l-0.496002,1.544983l1.212982,0.662018l-0.244995,0.945984l0.993011,0.006012l-0.490021,1.243988l-0.53299,1.882996l0.76001,-0.294983l0.526978,-1.881012l0.999023,-1.582001l0.747986,-0.942993l-1.243988,-2.200989l-0.460022,-1.900009l0.969025,0.649994l0.734985,1.250015l1.477997,-1.256012l0.950012,-1.899994l0.471008,-1.820007l0.005981,-0.085999l-0.962006,-0.632996l0.938019,-1.262009l1.428986,-0.974991l1.421997,-0.682007l1.428009,-0.037003l1.428986,-0.048996l1.404022,-0.705002l0.434998,-1.272995l0.747986,0.917999l1.141022,-0.705002l0.029999,0.645004l1.868988,-0.753998l-0.072998,-1.256012l0.056,0.949005l-1.416016,0.085999l-0.563995,-1.569992l-0.955994,-0.562012l0.648987,-0.979996l-0.269989,-0.944992l0.632019,-1.324005l0.839996,-1.311005l-0.037018,-0.645004l1.335999,-0.692993l1.539001,-0.753998l0.809021,-1.666l0.723999,0.593994l1.520996,-0.776993l1.292999,-0.725006l1.250977,-1.078003l-0.128998,-1.286987l1.992004,-0.209l1.710022,-0.809006l1.813995,-1.527008l-0.072998,1.318008l1.71698,-0.570007l-1.600983,1.514008l-1.011017,0.735992l-1.428986,1.471008l-0.503021,1.630997l0.632019,1.539001l1.464996,0.791l1.213989,-1.416l1.188995,-1.459l0.723022,-1.361008l1.329987,-0.18399l1.643005,-1.201004l2.488007,-1.354996l2.065979,-1.005997l0.22702,-1.317001l1.386993,-0.907013l1.281006,-1.519989l-1.938019,-0.914001l-0.14798,-1.912003l-0.746002,-0.520996l-0.546997,1.722992l-1.011993,1.76001l0.269989,1.57399l-1.34201,-0.084991l-1.410004,0.845993l-1.789001,-0.035995l-2.126984,-0.968994l-1.588013,-0.44101l-1.122986,-1.776993l-0.48999,-2.164001l0.22699,-1.643997l-2.046997,0.901001l-1.888,-1.70401l2.513,-0.281998l1.17099,-0.796997l1.312012,-1.134003l-0.171021,-1.244995l-0.944,-0.833008l-1.728973,-0.429001l-1.809021,0.514999l-1.80899,0.539001l-1.562012,1.110001l-1.385986,0.735001l-1.593994,1.085007l-1.361023,1.396988l-0.955994,1.630005l-0.968994,1.354996l-1.005005,1.318008l-1.70401,0.733994l1.018005,-1.341995l0.778015,-1.306l0.998993,-1.311996l0.748016,-1.350006l0.94397,-1.623993l1.34903,-1.397003l1.520996,-1.692001l1.653992,-0.147003l0.227997,-1.625l0.881989,-1.348999l1.735016,-0.839996l1.397003,-0.158997l1.605988,-0.195999l1.752991,-0.540009l1.370026,0.113007l0.05899,-0.009003l1.403992,-0.208008l1.574005,-0.244995l1.300995,0.440994l1.71701,-0.643997l2.175995,-0.397995l0.911987,-1.459l0.719025,-1.416l0.661987,-1.453003l1.703003,-1.335999l2.188995,-0.802994l1.164001,-1.563004l0.863007,-1.182999l-1.38501,-2.274002l-0.048981,-1.630005l-1.938019,-1.47699l-1.60498,0.373993l-0.559021,-1.464996l-2.212982,0.140991l1.458984,-1.593994l-1.281006,-0.686996l-2.009979,0.116989l-0.980011,-1.108994l-2.329987,0.147003l-0.693024,-1.483002l-1.911987,-0.613007l-1.109009,-1.065994l-0.367004,-1.832993l0.605011,-1.354004l-1.187988,-0.748001l-0.252014,-1.244003l-1.225983,-1.041992l-1.324005,-1.680008l-1.152008,-1.703995l-1.434998,-1.661011l-1.251007,-1.691986l-0.833008,-1.122009l-0.741974,1.324005l-0.640015,1.001999l0.809998,1.127991l-0.575989,1.637009l-1.335999,1.078995l-0.490997,1.281006l-1.875,1.108994l-1.551025,-2.022995l-1.164978,-0.208008l-1.115997,-1.47699l-0.104004,-1.214005l-0.007019,-1.845001l-0.600983,-1.507996l0.184998,-1.557007l-1.403992,-0.201996l-1.386017,0.074005l-1.428009,-0.852997l0.393005,-1.226013l-1.39798,-0.857986l-1.244019,-1.202011l-1.354004,-0.882004l-2.048004,0.637009l-1.187988,0l-1.612,-0.637009l-1.753998,-0.33699l-1.207001,0.871002l-0.074005,1.531998l1.005005,0.944l-0.520996,1.483002l-0.679993,1.513992l0.894989,0.949997l0.22699,1.845001l-0.054993,1.544006l-1.036011,1.483002l-1.298981,0.281998l-0.244995,1.207993l1.102997,1.269012l1.134003,0.673996l0.588989,2.169998l0.300995,1.569l0.459015,2.175995l-0.067017,2.501007l-1.11499,1.543991l-1.679993,1.483002l-1.697998,1.202011l-1.70401,0.858002l0.631012,1.574997l0.471985,1.606003l0.080017,2.194992l-0.098022,1.882004l0.852997,1.931l-1.453003,1.826996l-2.040985,1.177002l0.104004,1.257004l-1.507996,-1.348999l-0.656006,-1.637009l-1.059998,-1.330994l-0.834015,-1.660995l-1.354004,-1.710007l0.552002,-1.845001l0.158997,-1.533005l-0.365997,-1.567993l-0.026978,-0.057007l0.845978,-2.757996l-1.691986,-1.097l-2.145996,-0.227005l-2.145996,-0.256989l-1.882019,-1.833008l-1.643005,-0.839996l-1.286987,-0.839996l-0.901001,-1.740997l-1.630005,-1.533005l-1.881989,-0.987l-1.716003,-1.594009l-1.636993,0.307007l-1.300018,0.330994l0.312012,-1.194992l-0.256989,-1.667007l0.39798,-1.477997l-0.190002,-2.298004l-1.177002,-0.582993l-1.335999,-0.024002l-0.165985,-1.612l0.552002,-1.778l0.803009,-2.054001l0.894989,-1.341995l0.901001,-1.373001l1.410004,-1.557007l1.299988,-1.280991l1.306,-0.306l0.509003,-1.759003l1.70401,-0.270004l1.832977,-0.257004l0.313019,-1.79599l1.612,-1.833008l2.427002,0.44101l1.600006,-1.569l1.556976,-1.582001l0.362,-1.759003l1.992004,-2.132996l-0.894989,-1.318008l1.912994,-0.018997l0.472015,0.955994l1.917999,0.803009l1.838989,-1.281006l2.040985,-1.311996l0.588013,-2.011002l-1.686005,-1.024002l0.22699,-1.740997l1.618011,-0.742004l0.244995,-2.151993l-1.845001,-0.613007l-0.061005,-1.194992l-1.648987,-0.736008l-1.612,-0.195999l-0.330994,1.710007l-0.264008,2.011002l-0.373993,1.998993l-1.740997,0.975006l-0.287994,1.416l-1.202026,0.434998l-0.858002,-2.219009l0.637024,-1.679993l0.337006,-1.440994l-0.809021,-1.91301l-1.919006,2.042007l-0.526978,-1.888l-0.44101,-1.594009l-1.127991,-1.134003l1.802979,-1.115997l-0.207977,-1.820999l-0.546021,-1.287003l-0.496979,-1.605988l-0.178009,-1.820999l1.127991,-0.895004l-0.158997,-1.201996l1.188995,-0.312012l1.25,0.276001l1.067017,-1.231995l1.104004,-1.195l0.759979,-0.710999l-0.826996,-0.815002l-1.833008,-0.918999l-2.175995,0.055l-0.944,1.225998l-0.18399,1.398003l-0.368011,1.673004l-0.520996,1.353989l-0.618988,1.619003l-1.25,0.570007l-1.165009,1.587997l-1.312012,1.62999l0.540009,2.287003l1.587006,1.893997l-1.348999,1.189011l-0.049011,1.807999l-1.820984,1.367004l-0.466003,-0.049011l-1.041992,1.488998l-0.938019,-1.446991l0.605011,-1.818008l0.014008,-0.075989l2.212982,-0.748001l-0.324982,-2.212997l-1.177002,-2.170013l-1.507996,1.386002l-1.716003,0.680008l1.391998,1.998993l-1.324005,0.820999l-0.932007,1.882004l-1.783997,-0.233002l-2.016998,-1.335999l-1.134003,-1.488998l-1.416992,-1.783997l-0.330994,-2.268005l-1.747009,-0.166l-1.876007,-0.177994l-1.526001,0.606995l0.901001,1.416l-1.220001,1.121994l-0.967987,-1.139999l-0.674011,-1.347992l-1.894989,-0.270004l-1.973999,-0.397995l-0.962006,-1.220001l-1.287994,-0.753998l1.048004,-0.828003l1.385986,0.257004l0.306,-1.600006l-0.821014,-1.556992l-1.452972,-1.055008l-0.785004,-1.488998l-0.736023,-1.630997l-0.073975,-1.698006l-1.496002,-1.133995l-1.667023,0.851997l-0.593994,-0.723l1.496002,-1.556999l-2.360001,0.833l-0.269989,-1.018005l0.992996,-1.617996l0.373993,-2.181999l-2.046997,1.042l-1.201996,-0.276001l0.918991,-1.311996l-1.783997,-0.374001l-1.942993,-0.380005l-1.404007,0.062004l0.024002,-1.127998l-0.912994,-0.638l-1.520996,0.103996l-1.361008,0.846001l-0.085007,-1.672997l0.392014,-1.526001l0.146988,-1.533005l-0.705002,-1.353996l0.251007,-1.122002l0.319,-1.323997l-0.557999,-1l-0.759995,-0.785004l0.275986,-1.330002l-0.53299,-1.152l0.306992,-1.709999l-0.416992,-1.170998l-0.362,-1.023003l1.084991,-1.440994l-0.459,-1.581001l0.809006,-0.778999l0.410995,-1.539001l-1.856995,-0.514999l-0.350006,-1.202003l-1.636993,-0.796997l-0.423004,-0.950005l-1.539001,-0.57l-1.692001,0.178001l-1.341995,-0.098999l-0.595001,-1.122002l-0.306992,-1.047997l-1.771011,0.301003l-1.25,1.262993l-1.084991,1.587006l-1.740997,1.060997l-1.139999,1.440002l-1.373001,1.288002l-1.220001,-0.037003l-0.085999,-1.729004l1.464996,-0.563995l-0.018997,-0.901001l-0.871002,-0.895004l-0.828003,-0.918999l-1.397003,-0.681l-0.595001,0.803001l-0.354996,1.127998l-1.128006,-0.030998l-1.151993,0.748001l-0.606995,1.82l0.299988,1.355003l-0.501999,1.353996l0.919006,0.552002l0.608002,0.770996l0.035995,0.075005l-1.434006,0.250999l-1.378998,1.145996l-1.735001,0.386002l-0.397995,-1.391998l-1.483002,-0.362l0.809006,-1.440002l-0.863998,-0.600998l-1.122009,0.213997l-1.685989,-0.213997l-2.237015,0.195999l-1.415985,1.501999l-1.667007,1.084999l-1.649002,1.465004l-1.335999,1.243996l0.048996,1.127998l1.416,0.527l-1.856995,1.532005l-1.110001,0.153l-1.330002,1.110001l0.630997,0.544998l0.227005,1.968002l-1.490005,1.740997l1.122009,-0.202003l-0.104004,1.066002l0.404007,0.667999l-1.888,0.883003l-1.931,0.778l-1.220001,-0.380005l-1.483002,-0.257996l-1.23201,-0.796997l-1.679993,-0.018005l-0.391998,-1.256996l-0.895004,-0.962006l-1.367004,-0.220993l-0.838989,-1.140007l-1.331009,-0.894997l-0.778992,0.671997l1.090988,1.146004l1.085007,0.771996l0.606003,0.999001l0.858002,0.472l0.638,1.128006l0.955994,0.961998l0.710999,0.957001l1.404007,-0.245003l0.981003,0.667999l1.32399,0.871002l1.483002,-0.030998l1.606003,0.563995l1.410004,0.667999l1.237991,0.085007l1.539001,-0.092003l0.221008,-1.318001l1.188995,-0.276001l1.091003,0.544998l1.556992,0.006004l1.716003,-0.595001l1.348999,0.116997l1.507996,0.649002l0.350006,0.938004l-1.300003,0l-0.96199,-0.840004l-1.906006,0.974998l-1.826996,0.288002l-0.319,0.987l-1.275009,-0.036995l0.710999,1.182999l1.410004,0.354996l1.416,0.208l0.436005,1.073006l1.850998,-0.355003l1.759003,-1.361l-0.085999,1.378998l0.472,1.036003l-0.386002,1.354996l-0.404007,1.949005l-0.104004,1.795998l0.693008,1.257004l0.729004,1.244995l-0.055008,1.710007l0.417007,1.213989l1.220001,0.123001l-1.343002,1.391998l-0.037003,1.625l-0.557999,1.949005l-0.344009,1.649002l-0.005997,1.556992l-1.097,1.680008l-0.509003,1.917999l-1.047989,1.716003l-1.152008,2.054001l1.814011,-1.729004l1.372986,-1.845001l1.392014,-1.292999l0.263992,-1.673004l0.490005,0.619003l1.353989,-0.863998l-0.806,1.416l-0.04599,0.061996l-0.999008,0.753998l-1.133987,1.606003l-1.159012,1.098007l1.214005,-0.031006l1.177002,-0.552002l-0.552002,1.275009l-0.440994,1.397995l-0.466003,-1.459l-1.440002,0.238998l-1.188995,1.520996l0.759995,0.429001l-1.104004,1.091003l-0.636993,1.231995l-0.281998,1.115997l0.011993,1.434006l-0.576004,1.673004l1.521011,-1.594009l0.949997,-2.218994l0.643997,-1.666992l0.110001,1.090988l0.576004,0.631012l-0.962006,0.796997l-0.716995,1.569l-0.362,1.453003l0.067001,1.439987l1.268997,0.380005l-1.703995,0.968002l-0.319,1.029999l-1.373001,-0.055008l-0.729004,1.968002l0.134995,1.478012l-0.686996,2.463989l0.423004,1.716003l-0.858002,1.796005l-0.190002,1.53299l-0.779007,0.975006l0.300003,2.016998l0.753998,1.483002l0.577011,1.753006l0.134995,1.801987l0.208008,1.796005l0.385986,1.533005l1.496002,-0.018997l-1.078995,1.556992l0.166,1.335999l-0.330994,1.747009l-0.60701,0.293991l-0.311996,1.759003l-1.471008,1.25l0.215012,-0.643997l-1.07901,-0.031006l1.600006,-0.759995l-0.483994,-1.576004l-1.109009,-0.882996l-0.852997,-1.917999l-0.673996,0.662003l-0.258011,1.011002l-0.483994,1.648987l-0.636993,1.907013l-0.558014,1.139999l-0.569992,1.182999l0.981003,1.550995l-1.312012,-1.048004l-0.704987,1.067001l-0.680008,1.421997l-1.158997,1.07901l-1.012009,1.582001l-1.145996,1.464996l-1.459,1.582001l-1.617996,1.496002l-0.834,1.703995l-0.184006,1.428009l-0.638,1.850998l-1.103989,1.470993l-1.410004,1.208008l-0.466003,0.796997l0.158997,1.311996l-0.123001,1.447006l-0.618988,1.090988l-0.588013,1.447006l0.067001,1.625l0.374008,1.453003l-0.736008,0.944l0.871002,1.041992l0.429001,-0.809998l0.514999,0.803009l-0.600998,0.270996l-0.208008,1.759003l-0.428986,-1.471008l-0.558014,1.490005l-0.042999,1.464996l0.705002,0.539001l-0.69899,1.367004l-0.601013,0.673996l0.515015,1.869003l0.054993,1.912994l0.287994,2.427994l-0.713989,1.577011l-0.057999,0.065994l1.409988,1.709l1.048004,1.464996l0.876007,1.344009l0.753998,0.501999l-0.270004,1.237991l0.759995,0.51001l0.693008,1.862991l0,1.783005l-0.289001,1.932007l0.110001,2.175995l-0.147003,1.667999l0.171997,1.481995l-0.324997,0.840012l0.490997,1.335999l-0.533997,1.410004l0.520996,0.649994l-0.514999,2.063995l1.048004,1.332001l0.772003,2.161987l0.48999,1.625l0.478012,1.600006l-0.478012,1.416016l-1.378998,0.203003l-1.409988,-1.145996l0.924988,1.862976l0.074005,1.367004l0.681,1.06601l0.845993,1.471008l1.091003,0.612976l0.570007,1.613007l1.097,1.574005l0.177994,2.049011l-0.496994,1.679993l-1.018005,0.765991l1.587006,1.80899l0.858002,1.723022l0.802994,2.009979l1.121994,1.820007l0.368011,2.71701l2.097,-0.859009l-0.589005,-1.868988l-0.753998,-2.27301l-1.158005,-0.583984l-0.319,-1.764008l0.600998,-0.313995l-0.606995,-1.611023l0.319,-1.11499l-0.429001,-2.15799l0.037003,-1.932007l-0.852997,-2.40799l-0.361008,-2.164001l-0.766998,-1.723022l0.098007,-1.937988l-0.39801,-1.906006l-0.619003,-2.035004l-0.367996,-1.868988l-0.778,-1.464996l-0.227005,-1.514008l0.729004,-1.252014l0.098007,-1.665985l0.330994,-1.539001l0.619003,-1l1.134003,1.693008l0.962997,0.220993l0.526993,1.321991l0.876007,1.141022l-0.509003,1.429993l0.055008,2.05899l-0.178009,1.238007l0.380005,1.894989l0.097992,2.053009c0.261673,0.803345 0.523331,1.606659 0.785004,2.410004l0.815002,2.402008l1.520996,1.097992l-0.514999,1.703003l1.182999,2.231995l0.374008,1.464996l0.69899,0.343994l0.380005,1.496002l-0.796997,0.889008l-0.233002,0.846008l0.962006,1.421997l1.692001,1.751984l0.447998,2.410004l0.931992,1.710999l0.92601,1.660004l0.839996,2.244019l0.722992,1.538971l0.932007,1.961029l0.753998,1.53299l0.024994,2.47699l0.833008,1.256012l-0.233002,1.109009l-1.244003,0.71698l0.348999,1.054993l-1.213989,0.39801l0.716995,2.097992l0.921997,2.123016l0.028,0.05899l1.692001,1.567993l1.378998,1.71701l0.803009,1.790985l1.991989,1.637024l1.820999,0.949005l0.809006,0.288971l1.182999,1.574005l1.680008,2.046997l1.556992,1.117004l1.569,1.078003l1.539001,1.360992l1.625,0.828003l1.563004,1.335999l1.576004,1.330017l1.931,0.846008l1.936996,1.126984l1.912994,1.080017l2.078003,-0.28302l1.809006,-0.372986l1.722,0.440979l1.416,0.662018l1.397995,0.882996l1.341995,1.15799l0.791,1.02301l1.343002,1.710999l1.378998,1.410004l1.06601,1.354004l1.697998,1.188995l1.733994,0.882996l1.778015,0.355011l1.728973,1.151978l0.834015,0.975006l1.507996,0.28302l1.747009,1.120972l1.477997,0.252014l2.132996,0.355011l0.625,-0.71701l1.152008,1.550995l-1.231995,-0.196991l1.151978,1.539001l1.145996,1.238007l1.465027,1.561981l1.446991,1.264008l1.496002,1.256012l-0.054993,1.317993l-0.348999,1.281006l0.53299,1.35498l1.243988,0.44101l0.576019,0.575989l1.292999,-0.871002l0.888977,1.141022l2.115021,1.298981l1.194977,1.152008l-0.342987,1.502014l1.856995,0.440979l0.914001,0.856995l0.950012,-0.39798l1.863983,0.417999l1.856995,0.679993l0.919006,1.079987l1.876007,0.146027l0.269989,1.770996l1.582001,-0.128998l1.894012,-0.631012l-1.562988,-1.104004l-0.282013,-1.054993l1.582001,-0.381012l1.251007,-0.690979l0.962006,-1.238007l1.237976,0.06601l1.563019,0.845978l0.925995,1.330017l1.243988,0.050995l-0.955994,0.96701l0.925018,1.796997l1.575989,1.323975l1.238007,1.299011l-0.307007,1.209015l0.287994,1.985992l-0.006012,1.464996l0.337006,1.464996l-0.649994,1.421997l1.25,0.985992l-1.263,1.15802l-0.955994,1.613007l-2.200989,-0.085999l-1.300018,1.347992l0.343018,1.18399l-1.600006,0.14801l0.643982,1.195007l-1.899994,0.587982l-2.544006,0.753998l-0.266998,1.686005l-0.039978,0.109009l-1.594025,0.785004l0,1.329987l-1.587982,0.338013l0.649994,1.813995l0.006012,1.298981l-0.644012,0.369019l1.292999,0.527008l1.562988,1.384979l0.331024,-1.257996l1.556976,0.093994l-0.606995,0.809021l-0.630981,1.237976l-1.25,0.350006l-1.882019,0.696991l-1.875,0.90802l0.011993,1.042999l0.619019,1.268005l1.306,1.311981l-1.269012,0.699005l1.287994,0.69101l1.900024,0.72998l1.256989,0.857025l1.256989,1.060974l0.662018,1.379028l1.893982,0.876984l1.263,1.195007l0.656006,1.152008l0.656006,1.134979l0.618988,1.121002l1.894012,1.490021l0.649994,1.083984l1.244019,1.085999l0.643982,0.722992l1.238007,0.705017l0.644012,1.031006l1.237976,1.358978l-0.287994,0.975006l1.558014,0.993988l1.220001,0.637024l1.213989,0.630981l2.458008,0.785004l1.832977,0.128998l1.820007,0.748016l2.434021,0.544983l1.200989,0.128998l1.803009,0.53302l1.802002,0.375l1.17099,0.686005l1.213989,0.214996l1.770996,0.630981l-0.048981,0.854004l0.22699,0.949005l0.53299,1.054993l-0.373993,0.822021l-0.061981,0.78299l0.263977,0.747986l-0.380005,0.77301l-0.336975,0.753998l-0.938019,0.777008l-0.061981,0.704987l-0.056,0.692993l-0.343018,0.69101l0.21402,0.64502l-0.049011,0.544983l-0.899994,0.46701l0.509003,0.686005l-1.238007,0.86499l-0.062012,0.582001l-0.906982,0.606995l-0.325012,0.563995l-0.889008,0.567993l0.520996,0.326019l0.184021,0.661987l-1.115997,0.292999l-0.348999,0.492004l0.22699,0.519989l0.196014,0.436005l-0.042999,0.289001l0.508972,0.25l-1.17099,0.589996l0.221008,0.373016l-0.828003,0.274994l-0.343018,0.368988l-0.839996,0.367004l-1.072998,0.355011l-0.575989,0.324005l-0.53299,0.300995l-0.778015,0.117004l-0.036987,0.269989l-1.274017,0.02301l-0.54599,0.300995l0.723999,0.18399l-0.023987,0.178009l0.237976,0.171997l0.196014,0.18399l-1.263,0.197021l-0.029999,0.18399l-0.248016,0.042999l-0.237,0.079987l0.002014,0.076019l0.205994,0.027008l0.466003,0.067993l1.152985,-0.006012l0.515015,-0.085999l1.402985,0l-0.740997,0.09201l0.687012,0.011993l-0.717987,0.049011l-0.067017,0.104004l-0.734985,0.067993l0.435974,0.02298l-0.968994,0.051025l0.44101,0l-1.165009,0.034973l1.808014,0.094025l2.5,-0.094025l2.406006,-0.125l2.061981,-0.093994l1.906006,-0.125l1.812012,-0.156006l2.125,-0.155975l1.687988,-0.125l2.343994,-0.25l1.281006,-0.125l1.312012,-0.156006l0.905975,-0.125l0.149017,-0.143005l0.227997,-0.036987l-0.066986,-0.012024l0.832977,-0.122986l1.986023,-0.289001l-1.76001,0.208984l1.53299,-0.237976l0.748016,-0.057007l1.372986,-0.188995l0.373016,-0.085999l-0.221008,-0.037018l-2.195007,0.338013l-1.27301,0.122986l0.25,-0.142975l-0.263977,-0.078003l1.074005,-0.197021l1.304993,-0.104004l1.329987,-0.145996l2.330017,-0.337982l2.015991,-0.367004l0.411987,-0.143005l-0.343994,-0.011993l0.980011,-0.300995l0.661987,-0.207001l-0.765991,0.011993l0.446991,-0.221008l0.593994,-0.005981l2.15802,-0.361023l2.200989,-0.417999l1.48999,-0.311981l1.96701,-0.404022l1.998016,-0.46698l1.539001,-0.38501l1.856995,-0.496002l0.759979,-0.332001l1.502014,-0.515991l1.312012,-0.519989l0.120972,-0.264008l-1.169983,0.22699l-0.446991,-0.117004l1.078003,-0.515991l-0.76001,-0.018005l-2.268005,0.295013l-0.307007,-0.14801l0.71701,-0.367004l1.243988,0.006012l1.980011,-0.44101l0.846008,-0.042999l1.612976,-0.281006l1.771027,-0.483978l1.917999,-0.436005l1.524994,-0.44101l1.656006,-0.593994l1.48999,-0.60199l0.501984,-0.350006l1.729004,-0.699005l1.637024,-0.796997l0.86499,-0.600006l1.507996,-0.682007l1.752014,-0.78299l1.753998,-0.791016l1.384979,-0.828003l1.416016,-0.85199l0.876984,-0.704987l1.421997,-0.900024l1.631012,-0.993988l1.527008,-0.820007l0.888977,-0.46698l0.906006,-0.796997l0.639008,-0.71701l0.145996,-0.55899l0.507996,-0.889008l0.375,-0.679993l1.562012,-1.012024l1.600006,-1.060974l1.839996,-1.172028l1.593994,-1.089996l1.653992,-0.833984l2.012024,-1.195007l0.882996,-0.153992l1.653992,-1.281006l1.507996,-0.625l-0.264008,-0.299011l2.084015,-0.974976l1.436005,-0.521027l1.496002,-0.649994l1.542999,-0.790985l1.479004,-0.667999l0.337982,-0.680023l1.666016,-1.09198l1.667999,-1.104004l0.405975,-0.830994m-143.595001,-283.12001l0.098022,1.110001l-0.294006,1.298996l1.127991,0.39801l0.404022,1.679993l0.263977,1.91301l1.783997,-0.693008l1.777008,-0.067001l0.962006,-1.845001l0.299988,-1.912003l-1.182983,-1.023994l1.648987,-1.152l0.042999,-1.758995l-1.34198,0.336998l-1.159027,-0.662003l-1.298981,0.172005l-0.699005,0.955994l0.158997,1.772003l-1.434998,-0.643997l-1.157013,0.120995zm-17.844971,-3.922997l0.526978,1.353996l-1.127991,0.736l0.233002,1.367004l1.378998,1.201996l1.445984,0.723l0.699005,1.544998l-1.894989,-0.024002l-1.489014,-0.875992l-1.335999,-0.607002l-1.145996,1.948997l0.687012,1.490005l1.477997,0.863998l-0.76001,2.371994l1.710022,0.631012l2.077972,0.655991l2.292023,0.098007l1.863007,0.17099l1.85199,-0.483994l0.434998,1.539001l0.993011,1.477997l1.728973,0.158997l1.790009,-0.48999l-0.005981,-1.397003l1.513977,0.233002l0.920013,-1.44101l-1.619019,-1.243988l-1.133972,-1.447006l-0.423004,-1.612l1.213989,-1.716003l0.368011,-1.893997l0.423004,-1.378998l1.666992,-1.091003l1.139984,-0.926003l-0.269989,-1.158997l-1.507996,-0.520996l-1.740997,1.139999l-1.532013,1.225998l-0.80899,-1.667l-1.459015,-0.135002l-0.477997,-1.165001l-1.97998,0.374001l0.944,-1.833l-0.981018,-0.563995l-1.43399,0.299995l-1.507996,-0.135002l-1.447021,0.135002l-0.698975,0.753998l-1.373016,0.251007l-1.225983,1.059998zm-60.595016,34.045998l-1.446991,1.723007l-0.043015,1.366989l-0.974991,1.729004l-0.514999,1.729004l0.018997,2.330002l0.828003,-1.87001l-0.005997,-1.384995l1.035995,-0.710999l0.869995,-1.839005l1.692001,-0.949997l-0.802994,-0.876007l-0.656006,-1.246994zm-2.507004,16.397995l-0.330994,2.274002l0.423004,1.667007l0.434998,1.654999l-0.692001,0.643997l0.520996,1.311996l0.104004,1.335999l0.796997,0.681l-0.544998,0.766006l0.681,1.789993l0.593994,1.312012l1.202011,0.140991l0.067001,-1.979996l-0.337006,-2.268005l0,-2.059998l0.343002,-2.194992l-0.766998,-1.514008l-1.011002,-1.716995l-0.514999,-1.759003l-0.969009,-0.085007zm166.571014,-49.652992l-0.675995,-0.644005l0.220978,-1.372993l-1.574005,-1.097l0.34201,-1.067001l1.117004,0.655998l1.372986,0.870003l1.176025,-0.250999l0.741974,-1.085007l-1.378998,-1.262993l-1.214996,-1.005005l-1.78299,-0.422997l-1.765991,-0.104004l-1.594025,-0.226997l1.471008,-0.306999l1.582001,-0.343002l-0.813995,-0.968002l-1.625,-1.011993l-1.054993,0.319l-0.018005,-0.981003l-0.110992,-0.760002l0.649994,-0.889l-1.071991,-0.815002l-1.232025,0.325005l0.613007,-1.913002l-1.036987,-1.165001l-0.710999,0.735001l-1.231995,-1.539001l-1.52002,-1.072998l-1.825989,-0.760002l-1.09201,0.564003l-1.061005,-0.852997l-0.194977,-1.079002l1.458984,-0.612999l-0.90799,-0.803001l-1.856995,-0.698997l-1.428009,-0.300003l-1.317993,-1.25l-1.404022,-0.681l-0.519989,-1.023003l-1.09201,-0.957001l-1.054993,-1.208l-0.985992,-1.354996l-0.606995,-1.157997l-1.145996,-1.937004l-1.617004,-0.025002l-1.257019,0.858002l0.503021,1.158997l-0.729004,0.251007l0.39798,0.906998l0.115997,1.060997l-0.39798,1.104004l-0.882996,-1.318001l-0.196014,-1.054001l-0.294006,-0.545998l-0.955994,-0.447006l-0.497009,0.692001l0.828003,0.57l-0.380981,0.644005l-1.121002,-0.820999l-1.601013,1.231995l0.085999,-0.820999l0.999023,-0.655998l0.803986,-1.165001l-0.122986,-1.103996l-1.330017,-0.073006l-1.061005,0.355003l-1.029999,-0.336998l-1.567993,-0.037003l-1.330994,0.834l-1.605011,0.728996l-0.667999,1.201004l-1.213989,1.335999l-0.312012,1.385002l0.373993,1.244995l-1.514984,0.355003l0.373993,1.428001l-2.028992,-0.489998l-2.084015,1.274994l-1.071991,1.226006l0.691986,0.918999l-0.072998,0.925995l-1.140991,0.012001l-0.54599,0.889l-0.826996,1.312004l-0.355011,1.446999l1.729004,-0.190002l0.552002,0.975006l-0.446991,1.808998l-2.048004,0.771996l-1.115021,0.931999l-1.453003,0.607002l-0.452972,1.318001l0.069977,0.084999l1.03302,0.834l1.054993,-0.208l0.373993,1.067001l1.386017,0.643997l-1.281006,0.417l-0.925995,0.791l0.858002,0.668007l1.378998,0.557999l-0.582001,0.759995l0.998993,0.742004l1.850983,0.520996l1.012024,-0.802994l1.685974,-0.361l1.558014,-0.239006l1.80899,0.846001l1.654022,0.178001l0.373993,1.109001l1.152008,0.944l1.48999,1.275002l0.582001,1.593994l1.329987,1.140007l0.675018,1.274994l0.360992,1.986008l1.036011,1.188995l0.121979,1.710007l0.882996,0.704987l1.423004,-0.367996l0.318024,-1.274994l1.434998,1.685989l1.569,0.147003l1.103973,1.496002l-2.261993,-0.423004l-1.690979,0.361008l0.342987,2.005005l0.411011,1.991989l1.917999,0.833008l1.636993,-1.091003l0.479004,-1.807999l1.464996,1.729004l0.778992,2.543991l-2.02301,0.613007l-0.429993,1.636993l0.307007,2.096008l0.631012,1.973999l0.987976,1.58699l0.643005,1.692001l2.213013,1.24501l1.39798,1.778l0.797028,2.003998l1.464996,0.80899l0.704987,1.391998l2.481995,2.096008l0.865021,0.992996l1.765991,1.673004l1.542999,1.427994l2.527008,1.429001l2.311005,-0.539993l1.776978,-0.005997l1.619019,1l2.622986,0.287994l0.796997,-1.042007l-0.196991,-1.954987l-0.76001,-1.710007l-0.507996,-1.813995l-0.153992,-1.980011l-1.843994,-1.899994l0.729004,-1.686005l0.122986,-2.11499l-0.618988,-1.759003l-0.865021,-1.637009l-2.078003,-1.740997l1.496002,-0.362l-0.403992,-1.526001l1.145996,-1.292999l1.875,-1.00499l0.902008,-1.912003l0.350006,-1.625l0.18399,-1.587997l-0.386993,-1.545013l-0.520996,-1.500992l-0.115021,-1.778l0.27002,-1.287003l1.347992,-0.931992l0.596008,-1.575012l0.776978,-1.330002l0.496002,-1.575996l0.221008,-1.384995l-0.06601,-1.606003l-0.024994,-1.625l-0.393005,-1.306l-1.255981,0.68l-1.777008,0.300003l-0.377991,1.502998zm14.415985,10.732994l0.963013,-0.440994l0.375,-1.145996l1.083984,-0.178009l0.203003,1.557007l-0.28299,1.925003l1.429993,-1.281006l1.949005,0.785004l0.378998,1.813995l1.765991,-1.660995l1.674011,-0.324997l1.653992,-0.828003l0.057007,-1.919006l0.593994,-1.121994l-0.195007,-1.759003l0.361023,-1.937004l-0.846008,-2.004997l-1.76001,-1.335999l-1.526978,0.392998l-1.814026,-1.268997l-0.464996,1.047997l-1.200989,-0.048996l0.514008,1.318001l-0.115021,1.102997l-1.061005,0.203003l-0.595978,1.127998l0.350006,0.998993l-1.232025,-0.103989l1.350006,1.330002l-0.55899,1.396988l-1.696991,-1.416l-1.613007,-0.195999l-0.949005,0.411011l0.692993,0.648987l-0.644989,0.570007l0.846008,0.968994l0.315979,1.373001zm-99.610992,-82.644997l-1.747009,-0.403999l-1.139984,0.343002l-0.692017,0.734997l-0.834991,0.859001l-1.029999,0.123001l-0.337006,0.84l0.049011,0.889l0.595001,0.330997l1.096985,-0.202l0.545013,-0.312l1.679993,-0.011997l-0.178009,-1l2.403015,-0.123001l0.643982,-0.918999l-1.053986,-1.148003zm34.101013,-0.544998l-1.392029,0.434998l-1.691986,-0.060997l-1.428009,0.319l0,1.053997l0.772003,0.729l1.097015,0.564003l0.796997,-0.337002l0.595001,-0.870998l0.717987,-1.012001l0.53302,-0.82zm4.480988,5.209999l-0.072998,-0.931999l-1.213989,-0.563999l-0.288025,-0.962002l-1.397003,-0.508999l-1.072998,-0.459999l-1.134003,0.085999l0.09201,0.907001l-0.605988,0.870998l0.502991,0.754002l1.010986,0.459999l0.203003,0.753998l-0.435974,0.515003l0.514984,0.618999l0.343994,0.606998l1.623993,-0.540001l0.632019,-0.863998l1.296997,-0.742001zm46.329987,2.292999l0.326019,-1.072998l0.188995,-0.924999l-0.753998,-1.146l-1.080017,-1.140003l-1.083984,-0.355l0.231995,1.146l-0.679993,0.723l-1.178009,0.570004l-1.438995,0.373997l-1.593994,0.012001l-1.730011,-0.104l-1.734009,-0.055l-1.722992,-0.023998l-1.911987,-0.16l-1.740021,0.024998l-1.894989,-0.319l-1.960999,-0.281998l-1.575989,-0.502003l-1.839996,-0.368l-1.703003,-0.250999l-1.27002,0.656002l0.546997,0.736l1.764008,0.299999l1.343994,-0.134998l1.770996,0.605999l1.330017,0.870998l2.109009,0.478001l1.60498,0.129002l1.109009,0.062l1.820007,0.636997l0.919983,-0.330997l2.170013,-0.098003l1.917999,0.251003l0.596008,-0.583l1.452972,0.440998l1.955017,0.074001l0.803009,-0.417l1.481995,0.527l1.449982,-0.350002zm65.690002,94.162994l1.391022,0.699005l1.171997,-0.115997l0.587982,-1.471008l0.240021,-1.575989l-0.240021,-1.968002l0.553009,-1.637009l-1.018005,-1.231995l-1.048981,-1.268997l-1.496002,-1.072998l-1.335999,-0.748001l-0.416016,-1.766006l-1.588013,-0.918991l-1.220978,-0.294006l-0.791016,0.748001l-0.845978,0.876007l-0.146027,1.470993l0.809021,1.593994l0.919983,-0.299988l0.421997,1.084991l-0.519989,0.834l-0.618988,0.962006l0.690979,1.182999l0.945007,-0.300003l0.221008,1.354004l1.395996,0.097992l0.46701,-0.735992l0.911987,1.992004l1.128998,1.636993l-0.570007,0.871994l0,0zm-323.19899,50.88501l-0.403999,0.882996l-0.331001,0.029999l-0.435997,1.557007l-0.355003,0.619003l-0.030998,1.084991l0.324997,-0.214005l0.306999,0.178009l0.257004,0.587997l0.361,-0.011993l0.061996,-0.981003l0.238998,-0.919006l0.018005,-0.949997l-0.024002,-0.912994l0.012001,-0.951004l0,0zm122.867004,-172.164003l-1.219009,0.5l-0.714996,0.337l-0.705002,0.472l-0.330994,0.325001l-0.098007,0.238998l0.343002,0.135002l-0.423004,0.429001l-0.263,0.428997l-0.582993,0.613003l0.496994,0.104l0.355011,0.134998l0.980988,-0.042999l1.005005,-0.098l0.699005,0.079998l0.244995,0.250999l0.085999,0.337002l0.128006,0.264l0.914001,-0.221001l0.735992,0.036999l0.287994,0.288002l1.520004,-0.514999l1.361008,-0.423l0.595001,-0.024002l1.526001,-0.57l1.237991,-0.587997l0.233002,-0.625l1.464996,-0.833l-0.104004,0.368l0.699005,0.104l0.981003,-0.515003l0.097992,-0.453999l0.680008,0.110001l0.662003,0.122999l1.287003,-0.636999l1.544998,-0.472l0.544998,0.024l-1.018005,0.674l-0.552002,0.673998l-0.655991,0.662003l-0.497009,0.704998l-0.146988,0.668003l-0.264008,0.544998l-0.539993,0.687l-0.509003,0.588001l0.07399,0.410999l-0.036987,0.501999l-0.595001,0.667999l0.123001,0.423l-0.544998,0.674l-1.367004,0.889l-1.501999,0.871002l-1.354004,0.802998l-0.845993,0.245003l-0.306,0.618999l-1.705002,0.785l-0.889008,0.729l-1.115997,0.593998l0.263992,0.141003l0.45401,0.153l-0.501999,0.496998l-1.306,0.595001l-1.085007,0.618999l-0.479004,0.514999l-1.047989,0.276001l0.202988,-0.644001l-0.931992,0.202l-0.906998,0.681l-0.809998,0.968002l-0.123001,0.453999l-1.091003,0.68l-1.257004,1.237999l1.054001,-0.325001l1.029999,-0.681l0.834,0.423l0.447006,0.583l-0.048996,0.820999l0.410995,0.662003l0.404999,0.667999l-0.649994,1.042l-0.76001,0.944l-1.139999,0.674l-0.423004,0.875999l-1.072998,-0.563999l-1,0.074001l-1.188995,0.264l0.054993,0.900997l0.233002,0.729l0.350006,0.631001l-0.393005,0.717003l1.165009,0l0.894989,0.355l-0.569992,1.237999l-0.791,0.362l-0.123001,-0.710999l-0.110992,0.007999l-1.183014,-0.167l-1.501999,-0.146999l-0.728989,-0.251003l0.367996,-0.918999l0.061005,-0.820999l-0.588013,-0.362l-0.422989,-0.717003l-0.215012,-0.924999l-0.661987,-0.440998l-0.307007,-0.736l-0.201996,-0.833l0.274994,-0.84l0.834,-0.760002l-1.048004,0.208l-0.636993,-0.355l0.447006,-0.759998l-0.901001,-0.257l-0.889008,-0.244999l-1.292999,-0.031002l-1.121994,0.153l-1.44101,0.288002l-1.200989,0.275997l-1.649002,0.349003l-1.490005,0.250999l-1.856995,0.612999l-1.292999,0.275002l-0.980011,0.153l-1.01799,0.355l-0.203003,0.747997l0.147003,0.619003l0.686996,0.434998l1.188995,0l0.037003,0.656002l-0.992996,0.987l1.145996,-0.27l1.139999,-0.055l0.227005,0.540001l-0.520996,0.913998l-0.820999,0.68l0.158997,0.448002l1.587997,-0.674l1.416,-0.27l0.679993,0.313l-0.123001,0.582001l-1.133987,0.594997l-0.012009,0.478001l1.533005,-0.368l0.888992,-0.557999l1.134003,-0.104l0.600998,0.508999l1.318008,-0.771999l0.085999,-0.57l1.311996,-0.27l0.673996,0.417l0.533005,0.631001l0.906998,0.227001l0.987,0.127998l-0.354996,0.944l-1.048004,0.705002l0.423004,0.612999l-0.311996,0.950001l-1.680008,0.127998l0.619003,0.681l0.141006,0.729l-0.172012,0.846001l-0.998993,1.115997l-1.281006,0.875999l-1.391998,0.724007l1.238007,0.232994l0.128998,0.907005l0.404999,0.875999l0.496994,0.766998l0.558014,0.753998l-0.233002,0.863998l0.582993,0.742004l0,1.011002l0.386002,0.766998l-0.619003,1.391998l-1.220001,1.134003l1.048004,0.551994l1.268997,-0.692993l1.833008,-0.760002l1.759003,-0.545998l1.207993,-0.441002l0.397995,-0.925003l1.379013,-0.178001l-0.815002,1.324005l0.422989,0.882996l0.257004,0.398003l0.011002,0.060997l0.251999,0.240005l1.507996,0.201996l1.374008,-0.875999l0.759995,0.815002l-1.446991,0.379997l-1.539001,0.577003l-0.570007,0.949997l0.319,0.637001l-0.858002,1.195099l-1.47699,0.472l-1.072998,1.017899l-1.410004,1.477005l-0.820999,1.292999l1.373001,-0.061005l1.00499,0.386002l1.716003,-0.410995l-0.195999,1.207993l1.061005,0.270004l0.759995,0.600998l1.600006,-1.439995l1.599991,-1.220001l0.846008,-1.686005l0.300003,-1.378998l1.581985,-0.772003l1.361008,-1.023994l1.483002,-1.25l1.244003,-1.330002l1.434998,-0.999001l1.453003,-0.974998l0.062988,-0.015999l0.335999,-0.242004l1.256012,-1.059998l1.029999,-1.159004l1.367004,-1.145996l0.655991,-1.312004l0.932007,-1.164993l0.925995,-1.134003l1.005005,-1.182999l-1.888,-0.067001l-1.600006,0.331001l-0.483994,-0.527l0.233002,-0.748001l1.207993,-0.183998l1.139999,-0.834l1.097,-0.006004l-0.539001,0.772003l0.662003,0.250999l1.220001,-0.938004l-0.705002,-0.550995l-0.373993,-0.619003l1.348999,-1.055l1.391998,-1.323997l0.955994,-1.428001l1.158997,-1.237999l1.619003,-0.771999l0.852005,0.605999l1.477005,-0.012001l1.34198,-0.453999l1.220001,-0.882999l1.378998,-0.975002l0.681,-1.078999l0.883026,-0.716999l0.661987,-0.778l0.901001,0.287998l1.360992,-0.313l0.766022,-0.563999l1.207977,-0.171001l1.421997,0.386002l1.514008,-0.595001l1.416016,-0.925999l1.967987,-0.564003l1.453003,-0.618999l1.434998,-0.600998l1.759003,-0.729l-1.165009,-0.184002l1.324005,-0.667999l-0.109985,-0.521l-1.005005,-0.264l-1.361023,-0.282001l1.747009,-0.667999l1.783997,-0.980999l1.183014,-0.140999l0.692993,-0.479l0.165009,-0.588001l1.274994,-0.146999l1.679993,0.227001l-0.350006,-0.729l-0.416992,-0.687l0.307007,-0.760002l1.299988,-0.117001l1.637024,0.257l1.47699,0.509003l-0.18399,0.889l0.416992,0.875999l2.016998,0.374001l1.911987,-0.221001l2.434021,-0.153l1.850983,-0.454002l-0.208008,-0.612999l-0.894989,-0.429001l1.324005,-0.453999l2.225006,-0.299999l1.765991,0l0.17099,0.748001l1.490021,-0.245003l1.519989,0.098l1.097015,-0.287998l1.133972,-0.448002l1.183014,0.957001l-0.330994,0.674l1.299988,0.031002l0.434998,-0.355l-1.403992,-0.350002l-0.380005,-0.723l1.061005,-0.098l0.944,0.214001l1.115997,0.238998l0.625,-0.502998l-0.790985,-0.410999l1.403992,-0.386002l1.335999,-0.342999l1.188995,-0.031002l-0.681,0.760002l-0.078003,0.030998l-1.135986,0.324001l-1.299011,0.84l-1.251007,0.698997l-1.311981,0.914001l-0.969025,0.736l0.13501,0.967999l0.53299,0.779003l1.134003,0.550999l1.171021,0.238998l1.410004,0.067001l1.231995,-0.055l0.251007,-0.508999l1.250977,-0.037003l-0.876984,1.023003l1.286987,0.134998l1.490021,0l-1.53302,0.692001l1.636993,0.674l1.330017,-0.650002l1.35498,-0.797001l0.129028,-0.998997l1.770996,0.109997l-0.252014,-0.681l2.575012,-0.109997l-0.473022,0.606998l2.170013,-0.250999l1.348999,0.183998l1.238007,-0.478001l1.605988,-0.066998l2.005005,-0.117001l1.446014,-0.361l1.243988,-0.380001l0.472992,-0.576l-0.023987,-0.820999l1.855988,0.27l1.70401,0.129002l1.863983,0.355l1.771027,0.385998l0.373993,-1.072998l0.744995,-0.768002l-1.177002,-0.698997l-0.128998,-0.852001l1.592987,0.166l0.484009,0.955997l0.761993,0.748001l1.035004,0.362l0.355011,0.644001l1.188995,-0.080002l-0.833984,-0.987l0.894989,-0.023998l0.446991,0.681l1.145996,0.104l0.203003,-0.791l-1.109009,-0.914001l-0.14798,-0.551998l1.453003,0.870998l1.429993,0.882999l-0.895996,0.687l-1.175995,0.417l-0.64502,0.815002l0.367004,0.870998l0.613007,-0.098l-0.421997,-0.723l0.527008,-0.514999l1.103973,-0.257l1.25,0.166l1.539001,-0.405003l-0.067993,-0.734997l0.240021,-0.772003l1.304993,-0.287998l1.104004,-0.540001l0.802979,-0.833l-1.71698,-0.870998l1.539001,0.146999l0.993988,-0.545002l0.631012,-0.834l1.794983,-0.029999l1.39801,-0.178001l1.894989,0.227001l1.64801,0.293999l0.544983,1.054001l-2.296997,-0.453999l-1.458984,-0.036999l-1.613007,0.085999l-0.785004,0.466l-1.25,0.257l0.381012,0.999001l-0.957001,0.588001l-1.207001,0.649998l-0.963013,0.618999l-0.962982,0.631001l0.042999,0.931999l-1.416016,0.276001l-0.079987,0.033001l-1.121002,0.334999l-0.656006,0.466l0.925995,0.993l-0.820007,0.190002l-0.208984,0.667999l1.329987,0.244999l1.38501,-0.282001l1.421997,-0.269997l1.231995,-0.546001l1.387024,-0.257l1.923981,0.264l1.104004,-0.380001l0.403992,-0.729l1.343994,-0.232998l0.729004,-0.349003l-0.587982,-0.698997l0.526978,-0.815002l-0.300995,-0.698997l1.605011,-0.227001l0.403992,0.748001l0.024994,0.735001l0.777008,0.821999l0.39801,0.803001l0.847992,0.698997l0.274994,0.993l1.018005,0.864002l0.667999,1.312l-0.09201,1.072998l1.299011,0.049l0.117004,-0.600998l-0.295013,-0.875999l0.547028,-0.509003l0.25,-0.667999l1.188995,0.189999l0.856995,0.398003l0.859009,-0.27l0.507996,0.600998l-1.47702,0.447002l1.292999,0.508999l1.729004,0.423l0.791016,0.852001l1.122986,0.692997l1.201019,0.055l-0.160004,0.833l-1.312012,0.362l1.484009,0.552002l1.47699,0.583l1.386993,0.771999l1.402008,0.563999l1.613007,0.803001l1.195007,0.716999l1.73999,-0.189999l1.410004,0.667999l0.790985,0.901001l-0.636993,0.534l0.195007,0.851997l-1.705017,-0.423l-1.108978,-1l-0.955017,0.484001l-0.337982,0.57l0.815979,1l0.312012,1.116001l0.686005,-0.889l1.790985,-0.123001l1.777008,0.221001l0.036987,-0.637001l1.525024,-0.079998l1.436005,0.508999l0.060974,0.729l0.430023,0.961998l1.524994,0.638l1.458984,0.993004l1.594025,0.857994l0.97998,-0.472l1.209015,-0.465996l0.53299,1.208l0.042999,0.846001l-0.208984,0.918999l0.220978,0.851997l1.34201,0.527l0.854004,-0.705002l-0.479004,-0.802994l1.579987,0.110001l0.796997,1.372993l-0.710999,0.975006l-0.188995,1.097l-1.625,-0.166l-1.367004,-0.129005l-1.636993,-0.140999l-0.875,0.913002l-0.436005,0.778999l-1.410004,0.429001l0.723022,-0.821999l-0.006012,-0.081001l-0.02301,-1.041l0.307007,-0.949997l-0.203003,-0.914001l-0.311981,-0.993004l-0.098022,-1.060997l-1.017975,-1.170998l-1.490021,-1.073006l-1.483978,-0.638l-1.568024,0.019005l-1.11499,0.331001l-0.484009,0.863998l-0.214996,0.918999l-0.515991,0.914001l-0.582001,0.894997l-0.25,1.042l0.083984,1.177002l0.314026,1.263l-1.123016,-0.049004l-0.18399,0.852005l0.894989,0.771996l0.166016,1.104004l-0.770996,1.017998l-0.094025,-1.084999l-1.573975,-1.102997l-0.521027,0.808998l-0.526978,0.875999l-0.178009,1.084999l2.286987,1l-1.415985,0.060997l1.438995,1.005005l-2.106995,-0.319l0.790985,0.791l1.287018,0.661995l-0.710999,0.68l1.061005,1.012001l1.622986,0.993004l0.778992,1.318001l0.03302,0.089996l0.095978,1.056l0.107025,0.099998l1.75,1.065002l0.630981,1.152l1.213013,0.293999l0.251984,-0.489998l1.221008,1.177002l-1.171997,-0.208l0.90799,0.863998l-1.785004,-0.699005l1.189026,1.116005l0.882996,1.127998l0.895996,-0.319l0.575989,1.496002l1.451019,1.208l-1.15802,-1.453003l-0.269989,-1.084999l-0.300995,-1.237999l1.785004,1.667l1.438995,0.760002l1.458984,1.323997l1.453003,1.004997l1.416016,0.833l1.43399,0.957001l1.704987,1.071999l1.061005,1.374001l1.949005,1.544006l1.324005,1.25l1.335999,1.280998l-0.942993,0.331001l1.34198,1.115997l1.012024,1.103996l0.042999,1.336006l1.237976,1.482994l0.920013,1.348l0.899994,1.502007l1.188995,0.140999l0.957001,1.097l1.434021,0.502998l1.39798,0.618996l1.494019,0.055l0.993988,1.030006l1.127014,0.354996l-0.029022,-1.158997l0.912018,1.256996l1.324005,0.871002l0.931976,-0.140999l1.049011,-0.729004l0.48999,-1.047997l-0.606995,-1.594002l-0.954987,-1.25l-1.214996,-1.723l0.085999,-0.692001l-1.02301,-0.969002l0.882996,-0.299995l1.917999,0.552002l1.661987,0.293999l0.104004,0.035995l1.796997,0.400002l1.637024,0.306l1.384979,-0.213997l1.02301,0.894997l1.355011,0.171005l1.035004,0.526993l0.042999,-1.022995l0.019989,-0.889l-1.037018,-0.386002l-1.315979,-1.397003l0,-0.992996l-0.014008,-0.883003l-1.856995,-1.445999l-1.863007,-1.067001l-1.360992,-0.827995l-1.610992,-0.68l-1.078003,-0.667999l-1.166016,-1.496002l-0.894989,-1.355003l-0.484009,0.258003l-0.882996,-1.103996l-0.85199,-0.638l-1.09201,-0.073006l-1.018005,0.484001l-1.040985,0.478004l-1.393005,-0.405006l-1.686005,-0.796997l-1.686005,-0.698997l-0.871002,-0.699005l-1.751984,-1.378998l-1.201019,-1.255997l-0.938995,-1.048004l-0.97998,-1.237999l-1.213013,-0.705002l-1.25,-1.072998l-0.735992,0.544998l-1.221008,-0.857994l-0.846008,-0.123001l-0.690979,-0.785004l-1.215027,-0.728996l0.117004,-0.760002l-0.153992,-0.723l-0.44101,-0.785004l0.902008,-0.681l1.703003,0.343002l0.76001,0.863998l1.856995,1.055l1.593994,1.292999l1.882996,1.416l1.593994,1.397003l1.766022,0.987l1.660004,0.398003l1.582001,-0.024002l1.728973,0.949997l1.09201,0.349998l0.661987,-0.723999l0.699005,-0.403999l0.312012,-1.055l-0.53299,-1.298996l-0.854004,-1.361l-0.875,-1.355003l-0.871002,-1.330002l-0.479004,-1.501999l0.985992,-0.650002l-0.575989,-0.931999l1.134979,-0.232994l-0.054993,1.176994l1.434021,1.373001l0.97998,0.754005l0.455017,1.459l-0.171997,1.072998l0.58197,1.311996l0.527008,1.195l1.011993,1.171005l1.354004,0.435997l1.275024,0.098l0.073975,-0.723999l1.594025,0.527l1.587982,0.539001l0.949005,1l-0.071991,0.748001l-0.982025,0.091995l-0.661987,0.429001l0.472992,1.177002l1.674011,1.090996l1.121002,0.889l1.833984,0.729004l1.551025,0.514999l1.630981,1.152l2.278992,2.451996l0.613007,1.018005l0.09201,0.906998l-0.132996,-0.002998l-1.375,-0.181l0.343994,1.403999l0.593994,1.544998l1.054993,1.551003l0.27002,1.428001l0.759979,1.728996l-0.263977,0.662003l-0.557007,0.638l-0.472992,-0.918999l-1.072021,-0.019005l0.748016,1.048004l0.214996,1.195l0.446991,0.931999l0.705017,1.220001l-0.09201,0.918999l-0.988007,-0.846001l-0.937988,1.004997l-0.770996,-0.441002l-0.891022,0.459l-1.493988,-1.378998l-1.48999,-1.489998l-0.424011,-1.275002l-1.040985,-0.545998l-0.098022,0.864998l-1.042999,-0.552002l-1.298981,-1.060997l-1.055023,-0.532997l0.141022,1.090996l0.974976,1.146004l0.123016,1.243996l0.692993,1.042l1.003998,0.827003l1.570007,0.882996l1.335999,0.612999l0.906006,-0.311996l1.550995,0.894997l1.097992,0.080002l0.44101,0.820999l0.854004,-0.066994l0.660004,1.121994l0.988007,0.729004l-0.650024,0.477997l-0.194977,1.061005l0.655975,1l-0.306976,1.458l0.298981,1.256996l1.264008,0.828003l0.39801,-0.514999l0.747986,0.490997l0.582001,1.182999l-0.667999,0.336998l-1.48999,-0.999001l0.134979,0.705002l1.152008,1.102997l0.895996,1.097l0.826019,1.220001l0.77298,1.378998l0.214996,1.312012l0.38501,1.64299l0.178009,1.330002l0.854004,1.005005l1.151978,1.054001l0.207001,1.067001l0.498016,5.166992l-1.343994,-0.557999l-0.416016,0.987l1.631012,0.600998l1.734009,1.115997l-0.41803,0.987l-0.286987,1.336014l-1.152008,-0.233002l-0.311981,1.317993l0.054993,1.257004l-0.274994,1.169998l1.410004,1.104004l0.80899,-0.294006l0.415985,-0.858002l1.141022,-0.386002l0.742004,-0.96199l0.582001,0.110001l1.194977,0.080002l0.606995,0.748001l0.85202,0.158997l1.028992,-0.28801l1.295013,0.564011l1.450989,1.550995l1.436005,1.576004l1.018005,1.177002l1.34198,1.746994l0.064026,0.076996l0.36499,1.008011l-0.178009,1.164993l-0.704987,0.852005l-0.914001,1.341995l-0.335999,1.985992l-1.037018,0.778015l-0.919983,1.164993l-0.557007,1.576004l-0.687988,1.212997l-1.402008,0.686996l0.653992,1.716003l-0.464996,1.274994l0.312012,1.128006l1.845978,0.820999l0.89502,1.292999l0.856995,0.753998l1.350006,1.048004l0.856995,1.324005l0.945007,1.672989l1.187988,1.778l0.363007,1.569l0.992004,1.544006l1.02298,0.440994l0.496002,-0.791l0.981995,1.55101l1.06601,1.396988l0.679993,1.508011l0.527008,-1.410004l0.785004,-0.742004l0.11499,-1.280991l0.484009,-0.833008l1.097992,-0.311996l0.722992,0.348999l1.416016,0.705002l0.90799,-0.552002l-0.360992,-2.164001l0.152008,-1.477997l0.411987,-1.397003l0.576019,-1.208008l0.550995,-1.188995l0.526978,-1.194992l-0.612976,-1.802002l-0.680023,-2.330002l-0.073975,-0.153l-5.891022,-12.953003l0,-0.110001l-0.067993,-1.293991l-0.011993,-1.532013l-0.472992,-1.979996l-0.324005,-1.582001l-1.502014,-1.194992l-1.311981,-1.024002l-0.312012,-1.70401l-0.415985,-1.384995l0.735992,-0.722992l0.53299,-1.110001l0.906006,-0.557999l0.049011,-1.331009l-0.710999,-1.550995l-0.428009,-1.692001l-0.214996,-1.471008l-0.811005,-1.213989l-0.292999,-1.152008l0.35498,-0.785004l0.539001,-0.275986l0.355011,-0.950012l1.330017,0.876999l1.151978,0.39801l1.164001,-0.117004l0.890991,0.557999l0.09201,-0.992996l1.127014,-0.13501l1.121002,0.037003l0.687988,-0.483994l0.054993,-1.335999l0.85202,-0.171005l0.638977,-0.343002l0.231995,-0.483994l1.012024,0.324997l0.403992,-1.029999l0.803009,0.509003l1.005981,0.343002l1.006012,0.69899l0.605011,1.042007l0.974976,1.194992l0.589996,0.527008l-0.011993,-0.699005l-0.015991,-0.067993l-0.585999,-0.814011l-0.613007,-1.220001l-0.975006,-0.845993l-0.446991,-1.391998l-1.011993,-0.852005l-0.563995,0.533005l-1.232025,-1.361008l-0.837982,-1.176987l0.372986,-0.503006l0.13501,-0.863998l0.796997,0.466003l0.166016,-0.501999l-0.859009,-1.018005l-0.932007,0.221001l-0.550995,0.527l-0.570007,0.526993l-0.582001,0.699005l-0.39798,0.673996l-0.846008,-1.158997l0.02301,1.667007l-0.637024,0.661987l-0.656006,0.490005l-0.649994,-0.005997l-1.097992,-0.667999l-1.109009,-0.348999l-0.690979,0.472l-0.705017,0.293991l-0.919983,0.147003l-0.89502,-0.514999l-0.888977,-0.987l-0.705017,-0.018997l-0.882996,-0.828003l0.049011,-0.772003l-0.625,-1.433998l0.257996,-0.784996l0.667999,0.784996l0.925995,0.514999l0.686005,0.006004l-0.44101,-0.957001l-0.889008,-0.809006l0.90802,-0.618996l1.126984,0.630997l0.667999,0l0.877014,0.638l0.649994,-0.643997l0.643005,-0.012001l0.171997,-0.981003l1.02301,-0.667999l1.011993,-0.374001l0.552979,-0.681l0.748016,-0.374001l0.53299,-0.532997l1.072021,0.949997l1.464996,1.281006l1.237976,0.961998l0.516022,-0.386002l0.932007,0.128998l0.728973,0.116005l1.098022,0.256996l0.871002,-0.048996l-0.068024,-1.416l-0.464996,-1.729004l0.631012,-0.085999l-0.067993,-1.072998l0.55899,-0.411003l-1.360992,-1.103996l0.110992,-0.901001l-0.196991,0.544998l-0.723022,-0.422997l-0.214996,0.539001l-0.436005,0.245995l-0.71698,-0.281998l-0.656006,0.092003l-0.882996,-0.092003l-1.447021,-1.225998l0.805023,-0.270004l-0.209015,-1.017998l-0.687988,-0.796997l-0.502014,0.060997l-0.220978,-1.011002l-0.729004,-0.937996l-0.014008,-0.852005l-0.436005,-0.999001l-0.078003,-1.004997l0.625,-0.098l-0.479004,-1.139999l1.029022,1.391998l0.60199,0.429001l0.082001,0.055l1.399994,1.300003l-0.674011,-1.833l0.688019,0.759995l1.31601,0.852005l0.472992,0.091995l0.360992,0.674004l-0.372986,0.257996l0.80899,0.754005l0.09201,-0.729004l0.110992,-0.588997l0.832001,0.791l0.294983,-0.429001l0.957001,1.288002l-0.332001,-1.055l-0.335999,-1.048004l0.674011,0.808998l-0.410004,-1.219994l0.43399,-0.662003l-0.035004,-0.765999l-1.145996,-2.010002l-1.036987,-1.067001l-0.312012,-1.066002l-0.108978,-1.127998l0.483978,0.042l-0.099976,-0.748001l-0.76001,-1.158997l-0.39801,-0.846001l-1.200989,-1.569l-1.13501,-1.398003l-0.15799,-0.955994l-0.350006,-0.668007l-1.264008,-1.550995l0.44101,0.233002l1.085999,1.208l0.502014,0.189995l0.876984,0.883003l1.378998,1.102997l0.925995,0.667999l1.214996,1.397003l1.428009,1.520996l1.25,1.397003l1.15799,1.25l1.129028,1.237999l1.311981,1.642998l0.975006,1.324005l0.942993,1.808998l0.735992,1.421997l-0.136993,0.276001l0.77301,0.974998l0.104004,0.625l-0.723022,-0.821999l0.459015,1.300003l0.675995,1.459l0.975006,1.770996l0.894989,1.606003l0.570007,1.300003l-0.024994,0.802994l0.436005,1.324005l0.031006,0.784996l-0.049011,0.583l0.22699,1.171005l0.207001,1.139992l0.498016,1.477005l-0.688019,-0.300003l0.318024,1.330002l-0.02301,0.981003l0.09201,1.121994l-0.785004,-0.643997l-0.09201,0.949997l0.104004,1.335999l0.375,1.478012l0.539001,1.666992l1.011993,2.212997l0.03299,0.076004l2.906006,3.516006l0.070007,0.037994l0.575989,1.341995l0.430023,1.324005l-0.037018,0.979996l-0.563995,0.39801l-0.53299,0.809998l-0.232025,1.526001l-0.116974,1.177002l-0.473022,0.582993l-0.104004,0.024994l-0.386993,-0.018997l-1.009979,-1.139999l-0.344025,0.932007l-0.526978,0.748001l-0.203003,1.151993l-0.244019,1.514008l-0.09198,1.48999l-0.436005,0.735001l-0.639008,0.742004l-0.911987,-0.630997l0.085999,1.151993l-0.46701,0.533997l-0.911987,-0.814987l-0.449005,-1.318008l-0.605011,-1.697998l-0.859009,-1.526001l-0.917999,-0.772003l-0.454987,0.350006l-1.335999,-0.987l-0.307007,-1.104004l-0.899994,-1.490005l0.415985,2.011002l-1.200989,-0.612991l-0.324005,0.888992l0.037018,1.25l0.43399,1.459l0.031006,1.281006l-0.674011,1.201004l0.214996,1.299988l-0.718994,1.189011l0.363007,1.496002l-0.067993,1.263l-0.53302,0.311996l-0.515991,1.011993l-0.34201,1.244003l-0.042999,1.091003l-0.311981,1.054001l0.028992,1.453003l-0.257996,1.64299l-0.367004,1.778l0.014008,0.072998l0.02298,6.069l0.02301,0.103012l0.46701,1.293991l-0.06601,2.072006l-0.277008,1.287003l-1.071991,0.551987l-0.238007,1.091003l-0.661987,1.373001l-0.264008,1.091003l-1.393005,0.483994l-0.954987,-0.386002l-0.381012,1.238007l0.753998,1.895004l0.682007,1.488998l0.539001,1.654999l0.539001,1.686005l-0.049011,2.145996l-0.386993,1.679993l-0.140991,1.747009l0.372986,1.875992l0.067993,1.814011l0.619019,0.944l0.436005,1.728989l0.005981,1.410004l1.482025,2.403l0.938995,0.453995l0.661987,2.207001l0.238007,1.943008l0.104004,2.065994l-0.447021,1.986008l0.189026,1.936996l-0.611023,2.158005l-1.042999,1.819992l0.13501,1.943008l0.48999,1.845993l0.09201,1.514008l-0.446991,1.802994l-0.049011,1.274002l0.453003,1.839005l0.307007,1.625l0.380981,2.272995l-0.160004,2.158005l-0.02298,1.960999l0.085999,1.770996l0.403992,2.556992l0.06601,1.803009l-0.307007,1.459l0.436005,1.703003l0.436005,1.687988l1.169983,0.098007l1.246002,0.384995l0.049011,0.06601l0.507996,1.436005l-0.257996,1.710999l1.160004,0.785004l0.839996,1.126984l0.507996,1.496002l0.350006,1.667999l0.165985,1.869019l0.141022,1.862976l0.606995,1.998016l-0.277008,1.949005l-0.128998,1.802979l-0.610992,1.667999l1.02298,-0.18399l0.889008,0.925995l0.600006,1.531006l0.214996,1.656006l0.417999,1.729004l0.985992,-0.209015l0.963013,-0.188995l0.734009,-1.221008l0.595978,1.770996l0.900024,-0.464996l0.870972,0.436005l0.710999,0.636993l0.914001,-0.251984l0.998016,0.22699l0.81601,0.406006l0.403992,1.243988l0.367004,0.986023l0.479004,0.813995l1.097992,0.233978l0.975006,-0.478973l0.948975,-0.490021l0.865021,0.141022l1.225006,-0.662018l0.974976,0.18399l0.762024,-0.079987l0.875,-0.307007l1.018005,-0.281006l0.790955,-0.765991l0.619019,-0.796997l0.632996,-2.15799l0.796997,-1.723022l0.459045,-1.937988l0.765991,-1.703003l0.724976,-1.710999l0.507996,-1.281006l0.619019,-1.269989l0.95697,-1.438995l0.605042,-1.054993l0.735962,-0.797028l0.381042,-1.770996l0.44696,-1.645996l0.028992,-0.106995l1.752014,-6.955002l0.064026,-0.248001l0.097961,-1.580002l0.44104,-1.94899l0.38501,-1.55101l0.411987,-1.311996l0.421997,-1.759995l0.435974,-1.525009l0.424011,-0.845993l0.495972,-0.203003l0.410034,1.164001l0.325989,1.380997l0.447021,-0.645004l0.286987,-1.32399l0.252014,-1.55101l0.231995,-1.575989l0.237976,-1.330002l0.166016,-1.335999l0.171997,-1.098007l0.177979,1.115005l0.17804,-0.875l0.19696,0.464996l0.207031,0.221008l0.049011,2.022995l0.061951,1.783005l-0.019958,1.587997l-0.054993,1.80899l0.13501,-0.452988l-0.072021,1.802994l0.005981,1.348007l0.009033,0.50499l-0.046021,1.052002l-0.215027,2.231995l0.06604,0.674011l0.013977,0.888992l0.065979,0.238007l0.117004,-0.956009c0.569031,-6.421997 0.859009,-12.923996 0.859009,-19.492996c0,-120.396996 -97.600983,-217.999998 -218.001984,-217.999998c-27.937988,0 -54.503998,5.215 -79.052002,14.791m210.105011,119.262007l0.644989,-0.613007l-0.429993,-1.740997l1.104004,-0.969009l-1.012024,-1.25l0.252014,-1.306l1.02301,-0.820999l-0.246002,-1.660995l-0.082001,-0.141998l-1.218994,-5.875l-0.053009,-0.156998l-0.406006,-1.477005l-1.089996,-1.300003l-1.109009,-0.306l-0.815979,0.552002l-0.119019,0l-6.078003,-0.246002l-0.108978,-0.019989l-1.350006,-0.397003l-1.605011,-0.834l-1.195007,-0.238998l-0.937988,0.600998l-0.436005,0.944l-0.424011,-1.263l-0.733978,-1.298996l-1.06601,-1.379013l-0.86499,-1.047997l-1.098022,-0.593994l-0.501984,1.146004l-0.424011,0.913986l-0.220978,1.220001l-1.055023,-1.373001l-0.48999,-1.826996l-0.875,-0.306999l-0.332001,1.385002l-0.613007,1.220001l1.054993,1.367004l0.699005,1.299988l0.932007,0.852005l-0.846008,0.311996l0.221008,0.820999l1.06601,0l0.48999,-0.912994l1.18399,1.716003l1.012024,0.778l-0.074005,-1.195007l1.188995,1.067001l0.458984,1.703995l0.453003,-0.834l0.969025,0.76001l-0.832001,-1.654999l1.27298,0.166l1.404022,1.918991l1.243988,0.300003l0.049011,-1.490005l0.024994,-1.482986l1.005981,1.434998l1.256012,0.134995l0.343994,-0.753998l1.003998,1.447006l1.22702,0.949997l-0.184021,1.072998l-0.914001,1.212997l0.848022,0.324997l0.685974,1.292999l0.453003,-0.906998l1.430023,1.169998l0.09198,1.177002l0.238007,1.520004l0.839996,0.330994l0.274994,-1.268997l0.64502,-0.582993l1.083984,-0.208008l-0.22699,-1.630005l0.919983,1.477005l-0.372986,0.803009l-0.44101,0.924988l0.839996,1.680008l0.502014,1.599991l0.445007,1.767014z" fill="#3d85c6" id="land" stroke="#000000" stroke-miterlimit="10" stroke-width="0"/>
    <path d="m525.5,199.834l0.117004,-1.097l0.323975,0.238998l0.301025,0.863998l0.09198,-1.306l0,-1.311996l0.436035,1.759003l0.13501,1.759003l0.194946,1.735001l-0.22699,0l-0.286987,-0.638l-0.245972,0.207993l-0.393005,-0.662003l-0.330017,-0.213989l-0.117004,-1.335007zm-279.373993,-67.067993l1.636993,1.108994l1.942993,0.944l0.429001,1.483002l-1.703995,-0.098007l-1.225998,-0.140991l-2.029007,1.182999l1.630005,1.263l1.018005,-0.791l1.845001,-0.227005l-0.650009,1.104004l-1.79599,1.011002l3.21199,-0.201996l0.343002,-1.808014l1.410004,1.649002l1.360992,-0.925995l1.268997,-0.681l-1.776993,-0.791l-1.317993,-1.335999l1.421997,-0.128998l1.501999,-0.09201l-0.753998,-1.25l-2.219009,-0.085999l-1.813995,-0.575989l-1.716003,-0.361008l-2.01799,-0.250992zm-2.557007,21.026001l0.632004,1.912994l1.059998,0.638l1.539001,0.164993l0.550995,0.667999l0.932007,-0.901001l1.543991,0.13501l1.404007,0.080002l1.619003,-1.263l1.685989,-0.178009l1.746994,0.503006l-0.005981,-1.042007l1.686005,0.820999l-1.134003,-1.213989l-1.061005,-0.533005l-1.488998,-0.098007l-0.987,0.540009l-1.397003,0.692993l-1.097,-0.263992l-0.693008,-1.115997l0.067001,-1.048004l-1.574997,-0.919006l-0.207993,0.969009l0.066986,1.519989l-1.207993,-0.367996l-0.828003,0.956009l-1.237991,0.349991l-1.613007,-1.006989zm3.317001,12.786987l1.311996,1.048004l1.171005,-0.845993l1.507996,0.061996l1.625,0.772003l1.667007,0.054993l-0.650009,-1l-0.938004,-0.434998l-0.48999,-1.268997l-0.791,-0.386002l-1.582001,0.981003l-1.275009,0.416992l-1.556992,0.600998zm10.150986,14.167007l2.06601,-0.244995l0.613007,-1.459l0.613007,-1.459015l1.440002,-0.483994l-0.178009,-2.054001l-1.373016,1.177002l-1.090973,0.919006l-0.019012,1.679993l-0.950012,0.975006l-1.121002,0.949997zm3.427002,13.196991l0.276001,1.404007l-0.085999,1.955994l0.766022,1.23201l-0.386017,1.188995l1.625,0.483994l-0.373993,1.87001l1.274994,-0.270004l-0.649994,1.434998l-0.644012,1.477997l-0.466003,1.532013l1.496002,-0.251007l1.281006,-2.291992l-0.466003,-1.741013l-0.257996,-2.403l0.031006,-1.967987l-0.123016,-2.011002l0.067017,-1.956009l-1.127991,-0.655991l-1.195007,-0.368011l-1.041016,1.335999zm-4.290985,-0.428986l0.036987,2.022995l1.183014,-0.600998l0.552002,1.182999l-0.846008,0.716995l-0.638,1.790009l0.925995,1.306l0.944,1.942993l-0.403992,1.225998l0.337006,1.421997l-0.570007,1.134003l1.772003,0.227005l-0.074005,-1.692001l-0.434998,-1.128006l-0.153015,-1.360992l0.85202,-1.410004l-0.987,-0.625l-1.281006,0.264008l0.39801,-2.225006l0.839996,-0.723999l0.416992,-1.182999l-0.975006,-1.637009l-1.894989,-0.648987zm13.834991,29.154999l1.25,0.269989l1.851013,-0.595001l0.735992,1.778l2.078003,-0.569992l2.06601,-0.596008l2.164001,-1.25l1.256989,0.203003l-1.907013,0.998001l-0.213989,1.238007l1.752991,-0.018005l0.826996,1.710007l1.697998,0.256989l2.292023,-0.64299l2.169983,-0.025009l-0.115997,0.951004l1.287018,0.152008l-0.447021,-1.661011l0.39801,-1.526001l-0.71701,-1.047989l0.166016,-1.281006l-1.882019,-0.244995l-0.871002,-1.386002l-0.539978,-1.998001l-2.041016,-0.307007l-1.673981,-1.231995l-1.048004,1.102997l-1.783997,0.656006l-1.072998,1.121994l-1.195007,0.749008l-1.770996,0.274994l-1.502014,1.022995l-1.697998,0.932007l-1.513,0.964005zm9.016998,9.813995l2.182007,-0.962997l-0.901001,1.47699l-0.404999,1.209l-0.796997,2.150009l-0.699005,1.464996l0,1.619003l-0.330994,2.181992l0.638,2.029007l1.165009,0.177994l1.225983,-0.435989l0.864014,-1.17601l0.766998,-2.121002l0.029999,-1.919998l-0.239014,-1.647995l0.21402,-1.544998l0.888977,-1.488998l0.667999,-1.526001l2.108002,-0.673996l1.110016,-1.784012l1.311981,0.159012l1.029999,0.771988l1.251007,0.791l0.53302,1.317001l-0.22702,2.201004l-1.544006,1.746002l-0.140991,1.289001l1.25,-1.166l1.416016,-0.471008l0.501984,1.960999l0.515015,1.961014l1.931,-0.785004l0.177979,-2.242004l0.833008,-1.839996l0.583008,-1.520004l-0.356018,-1.330002l1.435028,1.716003l2.200989,1.104004l0.968994,-1.203003l-1.201996,-2.322006l-1.195007,-1.991989l-2.372009,-0.791l-1.697998,-0.496002l-1.752991,-0.166l-1.71701,-0.484009l-1.298981,-0.140991l0.299988,1.298996l-2.169983,-0.257004l-1.061005,-0.440994l-1.343018,0.134995l-2.690979,0.276001l-0.649994,-0.098999l-1.048004,1.109009l-1.140015,1.439987l-1.121002,1.443008zm10.906006,12.326996l1.802002,1.141006l1.636993,0.153992l1.666992,-0.159988l1.741028,-0.814011l1.679993,-0.526993l1.942993,-0.834l1.673004,-0.859009l1.238007,-1.194992l-1.870026,-0.098007l-1.862976,-0.108994l-0.981018,0.888992l-1.145996,-0.423996l-1.643005,0.214996l-1.023987,1.178009l-1.955994,0.78299l-1.625,-0.15799l-1.27301,0.817993zm10.904999,-4.830994l1.367004,0.386993l1.888,-0.520996l1.600006,0.067993l1.599976,0.355011l1.643005,-0.264008l1.83902,-0.612991l-0.196014,-1.906006l0.484009,-1.251999l-1.618011,0.584l-0.925995,0.931992l-1.826996,-0.354996l-1.378998,0.25l-1.826996,0.270004l-1.649017,0.520996l-0.998993,1.544006zm195.179993,-125.168007l-0.403992,-0.244995l-0.375,-0.238998l-0.312012,-0.080002l0.570007,1.114998l-1.028992,-1.330002l-1.054993,-1.335999l-0.871002,-0.949997l1.386993,1.833l1.292999,1.697998l0.69101,0.803001l0.563995,0.894997l-0.097992,0.293999l-0.22702,0.074005l-0.393005,-0.264l-0.317993,-0.085999l-0.632996,-0.411003l-0.588013,-0.429001l0.559021,0.883003l0.48999,0.238998l0.649994,0.618996l0.47702,0.264l0.362976,0.062004l0.22702,-0.067001l0.587982,0.607002l0.295013,0.115997l0.575989,0.638l0.428009,0.257004l0.472992,0.465996l0.479004,0.447998l0.350006,0.288002l0.44101,0.459l0.085999,-0.080002l0.696991,1.061005l0.375,0.508995l0.386993,0.472l-0.09201,-0.256996l-0.185974,-0.423004l-0.221008,-0.428993l0.761993,1.237999l0.097992,0.128998l0.416016,0.710999l-6.920013,-9.552002l0,0zm-24.888977,-10.021996l0.790985,-0.147003l0.914001,0.349998l0.507996,-0.440994l-0.011993,-0.901001l-0.257996,-1.152l-0.723022,-1.453003l-0.231995,-0.992996l-1.005981,-1.354004l-1.018005,-1.342995l-1.028992,-1.330002l-0.994019,-1.526001l-0.329987,-0.987l-0.627014,-1.269005l-0.667999,-1.054993l0.46701,-0.165001l-0.674011,-1.257004l0.643005,-0.042999l-0.44101,-0.796997l0.042999,-0.595001l-0.642975,-0.901001l-0.19101,-0.717003l-0.846008,-1.188995l-0.863007,-1.182999l-0.526978,-0.987007l-0.889008,-1.164993l-1.48999,-1.490005l-1.201019,-1.208l-0.86499,-0.557999l-0.436005,0.055l-0.76001,-0.190002l-0.085999,0.245003l0.221008,0.896004l-0.006012,0.593994l-0.214996,0.288002l-0.421997,0.404999l-0.061981,0.588005l0.319977,0.778l-0.042999,0.392998l0.012024,0.544998l-0.570007,0.049004l0.332001,0.582001l0.777008,1.139999l0.28299,0.791l1.096008,1.208l0.661987,0.999001l0.925995,0.918999l0.871002,1.133995l-0.343994,0.270004l-1.207001,-0.840004l-0.153992,0.374001l0.067993,0.840004l-1.421997,-1.281006l-1.006012,-1.409996l-0.165985,0.710999l0.925995,1.269005l-0.071991,1.010994l-1.061005,-0.863998l0.496002,1.165001l0.427979,1.054001l1.27002,0.992996l1.18399,1.201004l0.828003,1.292999l1.25,0.532997l1.006012,0.803001l0.745972,1.159004l1.098022,1.115997l1.054993,0.607002l1.335999,0.924995l0.60199,1.245003l1.318024,0.931999l1.082001,1.331001zm-13.90802,-17.673004l0.145996,-0.374001l0.619019,-0.036995l-0.031006,-0.68l-0.980011,-1.232002l-0.575989,-1.035995l-0.436005,-1.054001l-1.686005,-1.306l-1.579987,-1.330002l-0.085999,0.379997l-0.387024,0.153l-0.509979,-0.851997l-1.438995,-1.330002l-0.822021,-1.054001l-0.079987,0.380005l0.811005,1.053993l1.078003,1.508003l1.587982,1.642998l0.925995,1.379005l1.256012,1.434998l1.264008,1.139999l0.924988,1.212997zm-11.273987,-19.634995l0.753998,0.306999l-0.209015,-0.514999l0.619019,-0.084999l0.735992,0.311996l0.925995,0.411003l0.472992,-0.184006l0.25,-0.281998l-0.122986,-0.446999l0.338013,-0.135002l0.60199,0.147003l0.048981,-0.404999l-0.638977,-0.803001l1.011993,0.931999l1.214996,0.913002l1.286987,0.839996l0.791016,0.509003l0.69101,0.728996l1.042999,0.544998l0.833984,0.429001l0.834015,0.466003l-0.546997,-0.692001l-0.986023,-1.067001l0.189026,0.019005l-0.576019,-0.772003l-0.742004,-0.803001l-1.850006,-1.654999l-1.710999,-1.471001l-1.263977,-1.165001l-0.76001,-0.514999l-0.71701,-0.319l-1.22699,-0.723l-1.545013,-1.011997l0.607025,0.594997l-0.479004,-0.159l-0.949005,-0.545998l1.347992,1.214001l-0.496002,-0.196003l-1.421997,-0.889l-0.722992,-0.778l-1.214996,-1.066998l-1.697021,-1.214001l0.129028,0.355999l0.071991,0.342999l-0.367004,0.031002l1.335999,1.121998l1.238007,0.821003l0.692993,0.257l-0.424011,0.066998l-0.690979,-0.238998l-1.424011,-0.901001l-0.221008,0.049l1.13501,1.054001l0.117004,0.497002l-0.791016,-0.178001l-0.392975,0.238998l0.569977,0.772003l-0.667999,-0.331001l-1.061005,-1.048l-0.630981,-0.710999l-0.682007,-0.006001l-1.643005,-1.139999l-1.403992,-1.195004l-0.415985,-0.692997l-1.152008,-0.932003l-0.980011,-0.857998l0.028992,0.319l-0.73999,-0.153l-0.804993,-0.091999l-0.078003,0.466l0.195007,0.643997l0.785004,0.729l1.02298,0.969002l0.582001,0.68l2.084015,1.41l1.177979,1.072998l1.244019,1.018002l0.453003,0.067001l0.919983,0.833l1.115021,0.655998l0.595978,0.918999l1.305023,0.742004l1.618988,0.961998l1.432007,0.913002zm-19.365021,-17.599003l0.975006,0.312l0.19101,-0.067001l1.11499,0.380001l-1.274994,-0.944l-1.292999,-0.931999l0.006012,-0.117001l-1.625,-1.029999l-2.059021,-1.085003l-0.925995,-0.281998l-0.968994,-0.601002l-1.109009,-0.563999l0.029022,0.264l0.171997,0.441002l-0.471008,-0.116001l-1.429993,-0.625l-1.27301,-0.576l1.746002,0.968998l0.140991,0.245003l1.582001,0.950001l0.64502,0.158997l0.298981,0.355003l1.264008,0.539997l0.925995,0.668003l0.785004,0.496998l0.975006,0.350002l1.578979,0.808998zm-109.210999,-33.004l-2.175995,-0.129l-1.783997,0.066999l-1.574982,0.086l-0.748016,0.239l-1.71701,0.195999l-1.899994,0.141001l-1.096985,0.215l-1.421997,0.342999l-0.833008,0.331001l-0.054993,0.312l-0.22702,0.391998l-0.41098,0.374001l0.944,0.066999l0.471985,-0.207998l0.097992,-0.227001l0.650024,-0.312l0.643982,-0.299999l0.662018,-0.276001l1.268982,-0.287998l1.269012,-0.264l0.932007,-0.196001l1.140991,-0.146999l0.937988,-0.172001l0.975006,-0.159l1.770996,-0.036999l2.179993,-0.048zm98.600006,62.398001l0.778992,-0.502998l1.164001,-0.147003l1.221008,0.080002l-0.22699,-0.540001l-0.925995,-0.497002l-0.417999,-0.956001l-1.230011,-0.625l-1.042999,-0.201996l-0.894989,0.213997l-0.146027,0.729004l-0.589996,0.355995l0.338013,0.828003l1.083984,0.881996l0.889008,0.381004zm-4.572998,-5.928001l0.588013,-0.281998l0.117004,-0.729004l1.280975,0.195999l-0.329987,-0.612999l-0.778992,-0.582001l-1.055023,-0.146996l-0.501984,0.397995l-0.877014,0.153l-1.372986,-0.263l-0.436005,0.570007l-0.067993,0.802994l0.606995,-0.276001l-0.049011,-0.551994l1.042999,0.140999l0.404022,0.778l1.428986,0.404999z" fill="#3d85c6" id="lakes" stroke="#FFFFFF" stroke-miterlimit="10" stroke-width="0.2043"/>
   </g>
  </switch>
 </g>
</svg>