<svg xmlns="http://www.w3.org/2000/svg" width="933.333" height="933.333" preserveAspectRatio="xMidYMid meet" version="1.0" viewBox="0 0 700 700"><metadata>Created by potrace 1.14, written by Peter Selinger 2001-2017</metadata><g fill="#000" stroke="none"><path d="M1530 6148 c-33 -17 -52 -36 -70 -70 l-25 -47 69 -623 c37 -343 70 -635 73 -649 4 -21 -7 -39 -59 -95 -286 -312 -487 -668 -603 -1068 -20 -65 -38 -136 -41 -157 -4 -22 -11 -42 -15 -45 -5 -3 -66 6 -137 20 -215 43 -629 106 -698 106 l-24 0 0 -1760 0 -1760 3500 0 3500 0 0 1750 0 1751 -33 -5 c-17 -3 -63 -10 -102 -16 -222 -32 -643 -107 -706 -126 -12 -3 -18 9 -27 59 -17 89 -68 264 -109 371 -124 326 -297 609 -532 871 -58 64 -71 85 -68 105 3 14 36 305 73 648 l69 623 -25 47 c-32 59 -94 95 -155 89 -29 -3 -224 -101 -685 -345 l-644 -342 -81 15 c-297 53 -655 53 -953 -1 -52 -9 -88 -11 -95 -6 -7 5 -295 159 -641 342 -455 241 -640 334 -670 337 -30 3 -54 -2 -86 -19z m625 -621 c182 -97 328 -179 325 -184 -3 -4 -59 -33 -125 -64 -125 -58 -281 -148 -399 -231 -38 -26 -71 -47 -73 -45 -1 2 -18 145 -38 318 -19 173 -37 331 -40 353 -4 29 -2 37 7 33 7 -3 162 -84 343 -180z m3040 146 c-3 -21 -21 -179 -40 -352 -20 -173 -37 -316 -38 -318 -2 -1 -32 18 -68 43 -109 77 -295 184 -417 240 -64 30 -116 57 -115 60 2 7 662 362 676 363 4 1 5 -16 2 -36z m-1349 -492 c250 -37 457 -102 690 -216 564 -276 996 -763 1197 -1350 45 -131 94 -322 85 -330 -8 -8 -959 -219 -1188 -264 -446 -87 -716 -121 -1031 -128 -398 -9 -766 37 -1359 172 -265 61 -1044 247 -1049 252 -10 8 22 134 69 276 274 826 991 1438 1853 1582 232 38 495 41 733 6z" transform="translate(0.000000,700.000000) scale(0.100000,-0.100000)"/><path d="M2568 4562 c-31 -20 -423 -511 -433 -542 -29 -91 86 -178 162 -125 12 9 95 108 184 220 143 181 164 204 178 192 39 -33 368 -295 391 -310 85 -59 204 40 159 134 -13 26 -506 428 -544 442 -29 12 -69 7 -97 -11z" transform="translate(0.000000,700.000000) scale(0.100000,-0.100000)"/><path d="M4325 4568 c-61 -35 -522 -413 -534 -437 -32 -67 22 -151 98 -151 44 0 37 -5 277 186 l192 153 161 -204 c89 -113 172 -211 184 -220 76 -53 191 34 162 124 -10 31 -402 523 -433 543 -31 20 -78 23 -107 6z" transform="translate(0.000000,700.000000) scale(0.100000,-0.100000)"/></g></svg>