<?xml version="1.0" encoding="UTF-8" standalone="no"?>
<svg
   xmlns:dc="http://purl.org/dc/elements/1.1/"
   xmlns:cc="http://creativecommons.org/ns#"
   xmlns:rdf="http://www.w3.org/1999/02/22-rdf-syntax-ns#"
   xmlns:svg="http://www.w3.org/2000/svg"
   xmlns="http://www.w3.org/2000/svg"
   xmlns:sodipodi="http://sodipodi.sourceforge.net/DTD/sodipodi-0.dtd"
   xmlns:inkscape="http://www.inkscape.org/namespaces/inkscape"
   height="72"
   viewBox="0 0 72 72"
   width="72"
   version="1.1"
   id="svg38"
   sodipodi:docname="github.svg"
   inkscape:version="1.0.2-2 (e86c870879, 2021-01-15)">
  <metadata
     id="metadata44">
    <rdf:RDF>
      <cc:Work
         rdf:about="">
        <dc:format>image/svg+xml</dc:format>
        <dc:type
           rdf:resource="http://purl.org/dc/dcmitype/StillImage" />
      </cc:Work>
    </rdf:RDF>
  </metadata>
  <defs
     id="defs42" />
  <sodipodi:namedview
     pagecolor="#ffffff"
     bordercolor="#666666"
     borderopacity="1"
     objecttolerance="10"
     gridtolerance="10"
     guidetolerance="10"
     inkscape:pageopacity="0"
     inkscape:pageshadow="2"
     inkscape:window-width="1488"
     inkscape:window-height="1368"
     id="namedview40"
     showgrid="false"
     inkscape:zoom="14"
     inkscape:cx="19.535714"
     inkscape:cy="36"
     inkscape:window-x="933"
     inkscape:window-y="0"
     inkscape:window-maximized="0"
     inkscape:current-layer="svg38"
     inkscape:document-rotation="0" />
  <g
     fill="none"
     fill-rule="evenodd"
     id="g36">
    <path
       d="M8,72 L64,72 C68.418278,72 72,68.418278 72,64 L72,8 C72,3.581722 68.418278,-8.11624501e-16 64,0 L8,0 C3.581722,8.11624501e-16 -5.41083001e-16,3.581722 0,8 L0,64 C5.41083001e-16,68.418278 3.581722,72 8,72 Z"
       fill="#3E75C3"
       id="path32" />
    <path
       d="M35.9985,12 C22.746,12 12,22.7870921 12,36.096644 C12,46.7406712 18.876,55.7718301 28.4145,58.9584121 C29.6145,59.1797862 30.0525,58.4358488 30.0525,57.7973276 C30.0525,57.2250681 30.0315,55.7100863 30.0195,53.6996482 C23.343,55.1558981 21.9345,50.4693938 21.9345,50.4693938 C20.844,47.6864054 19.2705,46.9454799 19.2705,46.9454799 C17.091,45.4500754 19.4355,45.4801943 19.4355,45.4801943 C21.843,45.6503662 23.1105,47.9634994 23.1105,47.9634994 C25.2525,51.6455377 28.728,50.5823398 30.096,49.9649018 C30.3135,48.4077535 30.9345,47.3460615 31.62,46.7436831 C26.2905,46.1352808 20.688,44.0691228 20.688,34.8361671 C20.688,32.2052792 21.6225,30.0547881 23.1585,28.3696344 C22.911,27.7597262 22.0875,25.3110578 23.3925,21.9934585 C23.3925,21.9934585 25.4085,21.3459017 29.9925,24.4632101 C31.908,23.9285993 33.96,23.6620468 36.0015,23.6515052 C38.04,23.6620468 40.0935,23.9285993 42.0105,24.4632101 C46.5915,21.3459017 48.603,21.9934585 48.603,21.9934585 C49.9125,25.3110578 49.089,27.7597262 48.8415,28.3696344 C50.3805,30.0547881 51.309,32.2052792 51.309,34.8361671 C51.309,44.0917119 45.6975,46.1292571 40.3515,46.7256117 C41.2125,47.4695491 41.9805,48.9393525 41.9805,51.1877301 C41.9805,54.4089489 41.9505,57.0067059 41.9505,57.7973276 C41.9505,58.4418726 42.3825,59.1918338 43.6005,58.9554002 C53.13,55.7627944 60,46.7376593 60,36.096644 C60,22.7870921 49.254,12 35.9985,12"
       fill="#FFF"
       id="path34" />
  </g>
  <path
     style="fill:#000000;stroke-width:0.0714286"
     d="M 6.8631963,71.885586 C 5.2034643,71.642157 3.6158993,70.834196 2.3812411,69.604582 1.3556395,68.583171 0.6730125,67.39133 0.26228493,65.904967 L 0.07142857,65.214286 V 36 6.7857143 L 0.26228493,6.0950329 C 1.0744965,3.1557576 3.1557576,1.0744965 6.0950329,0.26228493 L 6.7857143,0.07142857 H 36 65.214286 l 0.690681,0.19085636 C 68.849359,1.0759103 70.92409,3.1506414 71.737714,6.0950329 l 0.190857,0.6906814 V 36 65.214286 l -0.190857,0.690681 c -0.411164,1.487941 -1.08536,2.661722 -2.133132,3.713792 -1.021411,1.025602 -2.213252,1.708228 -3.699615,2.118955 L 65.214286,71.928571 36.25,71.938064 C 20.202233,71.94335 7.0972943,71.919921 6.8631963,71.885586 Z M 29.43539,58.899723 c 0.180291,-0.08188 0.358434,-0.238865 0.464286,-0.409146 l 0.171753,-0.276291 -0.02111,-2.247299 c -0.01161,-1.236013 -0.03115,-2.257336 -0.04341,-2.269604 -0.01227,-0.01227 -0.324198,0.03193 -0.693177,0.09821 -0.997075,0.179117 -2.563758,0.164452 -3.362783,-0.03148 -1.222441,-0.299755 -2.113847,-0.788916 -2.856495,-1.567505 -0.521529,-0.546768 -0.830953,-1.039322 -1.183328,-1.883669 -0.569053,-1.363541 -1.383596,-2.51463 -2.198954,-3.107497 -1.1967,-0.870151 -1.396969,-1.078619 -1.293992,-1.346972 0.118431,-0.308625 1.050445,-0.41883 1.765287,-0.208734 1.128276,0.331607 2.02753,1.068081 2.93001,2.399629 0.900442,1.328541 1.572455,1.909741 2.690701,2.327092 0.971932,0.362744 2.559984,0.288366 3.821615,-0.178987 0.401757,-0.148825 0.489089,-0.210473 0.519558,-0.366756 0.209091,-1.072458 0.62576,-2.042958 1.154792,-2.689728 l 0.352084,-0.43044 -0.897541,-0.125614 c -4.757076,-0.665773 -7.732637,-2.710367 -9.137542,-6.278671 -0.252736,-0.64192 -0.539037,-1.728446 -0.6924,-2.627693 -0.182684,-1.07116 -0.222197,-3.521789 -0.07156,-4.438191 0.271216,-1.64996 0.94931,-3.157968 1.998697,-4.444882 l 0.341491,-0.418787 -0.146656,-0.47407 C 22.966056,27.6419 22.86235,27.21964 22.816261,26.964283 c -0.122992,-0.681445 -0.105664,-2.139158 0.03439,-2.892857 0.169698,-0.913248 0.518107,-2.01118 0.654863,-2.063658 0.348208,-0.13362 1.543852,0.05358 2.501834,0.391704 0.884355,0.312139 1.807196,0.76951 2.960191,1.467109 l 1.019006,0.616531 0.82816,-0.187225 c 1.952463,-0.4414 3.19285,-0.577986 5.221016,-0.574916 1.99188,0.003 3.342819,0.153316 5.131333,0.570894 0.406162,0.09483 0.775989,0.172418 0.821838,0.172418 0.04585,0 0.452821,-0.230785 0.904381,-0.512854 1.006039,-0.628426 2.257032,-1.25597 3.084324,-1.547208 0.994952,-0.350261 2.281861,-0.545311 2.535126,-0.384235 0.04628,0.02943 0.164735,0.29412 0.263235,0.588192 0.587115,1.75284 0.65412,3.753255 0.177338,5.29446 l -0.146656,0.47407 0.341491,0.418787 c 0.958123,1.174993 1.600673,2.513372 1.932832,4.025931 0.185379,0.84416 0.188529,3.600191 0.0054,4.743378 -0.420708,2.626602 -1.271583,4.436217 -2.790843,5.935486 -0.398259,0.393018 -0.962479,0.872743 -1.253821,1.066057 -1.50726,1.000106 -3.504316,1.683868 -5.88109,2.013594 -0.441915,0.06131 -0.812136,0.11991 -0.822713,0.13023 -0.01058,0.01032 0.104231,0.153831 0.25513,0.318912 0.566798,0.620068 0.945018,1.419969 1.205381,2.549264 0.117727,0.510627 0.130149,0.950191 0.130149,4.605342 v 4.040834 l 0.192553,0.291064 c 0.250946,0.37933 0.686354,0.557456 1.218757,0.498594 0.768048,-0.08492 3.207309,-1.152128 4.82316,-2.110203 4.158965,-2.465947 7.438414,-6.04679 9.512745,-10.387 2.896544,-6.06056 3.128893,-13.134774 0.637128,-19.3983 -2.871631,-7.21839 -9.166828,-12.687181 -16.66234,-14.47498 -4.438363,-1.05862 -9.047775,-0.861022 -13.286623,0.569578 -7.799376,2.632268 -13.741925,9.097697 -15.691373,17.072043 -0.753311,3.081468 -0.899044,6.335967 -0.42382,9.464678 1.25698,8.275514 6.692968,15.289584 14.394099,18.572745 1.663635,0.709244 2.239367,0.828199 2.792533,0.576978 z"
     id="path46" />
  <path
     style="fill:#161b22;stroke:#161b22;stroke-width:0.071;fill-opacity:1;stroke-opacity:1;stroke-miterlimit:4;stroke-dasharray:none"
     d="M 6.7857143,71.821557 C 4.5276479,71.519386 2.2020266,69.869099 1.0479811,67.75 0.72242479,67.152202 0.53169548,66.668383 0.2770315,65.794348 L 0.07142857,65.088696 V 36 6.9113037 L 0.2770315,6.2056519 C 0.7777455,4.4871464 1.3942663,3.4309495 2.5474623,2.3160475 3.5018455,1.3933562 4.5025846,0.81494636 5.9225104,0.36532823 L 6.7378779,0.10714286 H 36 65.262122 l 0.815031,0.25808231 c 1.851743,0.58636112 3.204675,1.52522143 4.286637,2.97468963 0.519404,0.6958286 0.911961,1.4763351 1.25866,2.5025432 l 0.270407,0.8003991 0.01851,29.2142859 0.01851,29.214286 L 71.738436,65.75 c -0.364265,1.291167 -0.815217,2.210393 -1.515081,3.088339 -1.096166,1.375089 -2.369254,2.23377 -4.145866,2.796332 l -0.815367,0.258186 -29.041776,-0.0094 C 20.24737,71.878343 7.0017857,71.850471 6.7857143,71.821557 Z M 29.47571,58.918363 c 0.136014,-0.06454 0.325694,-0.232719 0.421509,-0.373724 l 0.17421,-0.256373 v -2.314797 -2.314796 l -0.339286,0.04312 c -0.186607,0.02372 -0.628572,0.08038 -0.982143,0.125911 -0.849472,0.109394 -2.197855,0.04181 -2.928571,-0.146783 -1.051698,-0.271438 -1.967349,-0.784178 -2.651168,-1.484582 -0.505517,-0.517778 -0.847335,-1.045172 -1.212727,-1.871128 -0.706255,-1.596465 -1.372139,-2.501858 -2.434975,-3.310805 -0.385622,-0.293505 -0.792647,-0.630765 -0.9045,-0.749467 -0.417173,-0.442716 -0.02379,-0.697011 0.995474,-0.643513 1.18682,0.06229 2.236571,0.796035 3.402966,2.378569 0.91049,1.235328 1.454105,1.761841 2.210765,2.141215 0.836376,0.419343 1.237586,0.493024 2.415593,0.443614 0.965527,-0.0405 1.523628,-0.148513 2.147245,-0.415584 l 0.325817,-0.139534 0.19382,-0.693427 c 0.241863,-0.865315 0.570044,-1.56173 1.009965,-2.143195 0.187156,-0.247373 0.324289,-0.465763 0.30474,-0.485312 -0.01955,-0.01955 -0.465368,-0.101008 -0.990708,-0.181018 -3.084513,-0.469782 -5.381423,-1.503241 -7.010802,-3.154403 -1.964253,-1.990512 -2.963792,-5.171256 -2.810558,-8.943785 0.06514,-1.603604 0.344337,-2.667421 1.063897,-4.053692 0.198854,-0.383103 0.585371,-0.991351 0.858926,-1.351663 l 0.497372,-0.655114 -0.113899,-0.362623 c -0.346949,-1.10459 -0.439922,-2.700065 -0.227662,-3.906837 0.122801,-0.698171 0.506575,-1.963918 0.615955,-2.031518 0.229071,-0.141574 1.465218,0.03012 2.366271,0.328669 0.679445,0.22512 2.111234,0.933935 3.159722,1.564236 l 0.938242,0.564027 1.103686,-0.241597 c 1.89982,-0.415873 2.650963,-0.49075 4.925114,-0.490953 2.228484,-2.15e-4 2.967466,0.0706 4.807061,0.460545 0.550675,0.116729 1.065769,0.212235 1.144654,0.212235 0.07888,0 0.547912,-0.237461 1.042284,-0.52769 0.996258,-0.584871 1.959297,-1.079393 2.643199,-1.357287 0.956553,-0.388683 2.578518,-0.683578 2.847028,-0.517629 0.04521,0.02794 0.176475,0.346926 0.291693,0.708849 0.536115,1.684052 0.589037,3.566937 0.14319,5.094377 l -0.148213,0.507764 0.498255,0.656274 c 0.846505,1.114972 1.503831,2.540419 1.756518,3.8091 0.257973,1.295225 0.198216,3.97735 -0.122333,5.490764 -0.452402,2.13593 -1.187857,3.599239 -2.49746,4.969108 -0.789592,0.825928 -1.377549,1.275047 -2.277987,1.740073 -1.38677,0.716187 -2.678737,1.117137 -4.694385,1.456855 -0.606216,0.102172 -1.113725,0.197281 -1.127797,0.211353 -0.01407,0.01407 0.122861,0.198435 0.304295,0.409694 0.424465,0.494243 0.910598,1.50461 1.095549,2.276966 0.134283,0.560762 0.148914,0.923624 0.191527,4.75 l 0.04614,4.142857 0.164876,0.256694 c 0.374405,0.58291 1.108584,0.637942 2.356195,0.176615 0.969265,-0.358404 3.404757,-1.568628 4.310015,-2.141697 2.604842,-1.648982 4.964773,-3.867366 6.714688,-6.311943 2.496902,-3.488099 3.94797,-7.299627 4.451946,-11.693954 0.135499,-1.181458 0.114182,-4.071249 -0.03899,-5.285715 C 59.216491,27.850955 56.990262,23.14042 53.294811,19.305514 50.87597,16.795394 47.976964,14.855236 44.75,13.586903 c -3.029579,-1.190752 -5.929682,-1.683434 -9.428311,-1.601719 -3.5135,0.08206 -6.55836,0.808095 -9.665638,2.304728 -3.913965,1.885179 -7.178197,4.695332 -9.578203,8.245802 -5.647603,8.354835 -5.495019,19.439207 0.380869,27.668007 1.515457,2.1223 3.650416,4.234061 5.785561,5.722698 2.245062,1.565271 5.500536,3.096886 6.60207,3.1061 0.212936,0.0018 0.491533,-0.04875 0.629362,-0.114156 z"
     id="path849" />
</svg>
