<?xml version="1.0" encoding="UTF-8" standalone="no"?>
<svg
   xmlns:dc="http://purl.org/dc/elements/1.1/"
   xmlns:cc="http://creativecommons.org/ns#"
   xmlns:rdf="http://www.w3.org/1999/02/22-rdf-syntax-ns#"
   xmlns:svg="http://www.w3.org/2000/svg"
   xmlns="http://www.w3.org/2000/svg"
   xmlns:sodipodi="http://sodipodi.sourceforge.net/DTD/sodipodi-0.dtd"
   xmlns:inkscape="http://www.inkscape.org/namespaces/inkscape"
   enable-background="new 0 0 128 128"
   id="Social_Icons"
   version="1.1"
   viewBox="0 0 128 128"
   xml:space="preserve"
   sodipodi:docname="youtube.svg"
   inkscape:version="1.0.2-2 (e86c870879, 2021-01-15)"><metadata
     id="metadata12"><rdf:RDF><cc:Work
         rdf:about=""><dc:format>image/svg+xml</dc:format><dc:type
           rdf:resource="http://purl.org/dc/dcmitype/StillImage" /></cc:Work></rdf:RDF></metadata><defs
     id="defs10" /><sodipodi:namedview
     pagecolor="#ffffff"
     bordercolor="#666666"
     borderopacity="1"
     objecttolerance="10"
     gridtolerance="10"
     guidetolerance="10"
     inkscape:pageopacity="0"
     inkscape:pageshadow="2"
     inkscape:window-width="1488"
     inkscape:window-height="1368"
     id="namedview8"
     showgrid="false"
     inkscape:zoom="7.875"
     inkscape:cx="64"
     inkscape:cy="64"
     inkscape:window-x="933"
     inkscape:window-y="0"
     inkscape:window-maximized="0"
     inkscape:current-layer="Social_Icons" /><g
     id="_x34__stroke"><g
       id="Youtube_1_"><rect
         clip-rule="evenodd"
         fill="none"
         fill-rule="evenodd"
         height="128"
         width="128"
         id="rect2" /><path
         clip-rule="evenodd"
         d="M126.72,38.224c0,0-1.252-8.883-5.088-12.794    c-4.868-5.136-10.324-5.16-12.824-5.458c-17.912-1.305-44.78-1.305-44.78-1.305h-0.056c0,0-26.868,0-44.78,1.305    c-2.504,0.298-7.956,0.322-12.828,5.458C2.528,29.342,1.28,38.224,1.28,38.224S0,48.658,0,59.087v9.781    c0,10.433,1.28,20.863,1.28,20.863s1.248,8.883,5.084,12.794c4.872,5.136,11.268,4.975,14.116,5.511    c10.24,0.991,43.52,1.297,43.52,1.297s26.896-0.04,44.808-1.345c2.5-0.302,7.956-0.326,12.824-5.462    c3.836-3.912,5.088-12.794,5.088-12.794S128,79.302,128,68.868v-9.781C128,48.658,126.72,38.224,126.72,38.224z M50.784,80.72    L50.78,44.501l34.584,18.172L50.784,80.72z"
         fill="#CE1312"
         fill-rule="evenodd"
         id="Youtube" /></g></g><path
     style="fill:#ffffff;stroke-width:0.126984"
     d="M 50.857143,62.601043 V 44.612466 l 1.301587,0.691211 c 0.715873,0.380166 8.35873,4.393966 16.984127,8.919555 8.625397,4.52559 15.75029,8.291026 15.833095,8.367635 0.135074,0.124969 -10.664282,5.830296 -31.347728,16.561085 l -2.771081,1.437666 z"
     id="path14" /></svg>
